<?xml version="1.0" standalone="no"?>
<!DOCTYPE svg PUBLIC "-//W3C//DTD SVG 1.1//EN" "http://www.w3.org/Graphics/SVG/1.1/DTD/svg11.dtd" >
<svg>
<metadata>
Created by FontForge 20090622 at Sat Apr 11 04:17:37 2020
 By deploy user
Generated by Metamorphosis Professional 2.01
</metadata>
<defs>
<font id="Western" horiz-adv-x="630" >
  <font-face 
    font-family="Western"
    font-weight="5"
    font-stretch="normal"
    units-per-em="1000"
    panose-1="0 0 0 0 0 0 0 0 0 0"
    ascent="800"
    descent="-200"
    x-height="535"
    cap-height="785"
    bbox="-36 -118 1132 1038"
    underline-thickness="20"
    underline-position="-156"
    unicode-range="U+0020-U+F002"
  />
<missing-glyph horiz-adv-x="892" 
d="M55 0v892h782v-892h-782zM782 55v782h-672v-782h672z" />
    <glyph glyph-name=".notdef" horiz-adv-x="892" 
d="M55 0v892h782v-892h-782zM782 55v782h-672v-782h672z" />
    <glyph glyph-name="glyph1" horiz-adv-x="0" 
 />
    <glyph glyph-name="glyph2" horiz-adv-x="250" 
 />
    <glyph glyph-name="space" unicode=" " horiz-adv-x="250" 
 />
    <glyph glyph-name="exclam" unicode="!" horiz-adv-x="285" 
d="M95 63q-11 17 -28 17q17 0 24.5 11.5t10 18.5t2.5 14q9 0 13.5 2t16.5 9.5t15 24.5q0 -16 13.5 -25.5t30.5 -9.5q0 -8 2.5 -14t10 -18t24.5 -15q-17 -3 -24 -12.5t-10 -16t-3 -13.5q-16 0 -29.5 -9.5t-13.5 -27.5q0 9 -4.5 15.5t-15.5 14t-26 7.5q0 9 -2 13.5t-7 13.5z
M92 406q0 17 -3 30.5t-19 36t-50 22.5q35 4 53.5 31t18.5 59v201h108v-199q0 -28 18.5 -55t52.5 -36q-34 -4 -52.5 -30t-18.5 -58v-194h-108v192z" />
    <glyph glyph-name="quotedbl" unicode="&#x22;" horiz-adv-x="290" 
d="M40 650v140h60v-140h-60zM180 650v140h60v-140h-60z" />
    <glyph glyph-name="numbersign" unicode="#" horiz-adv-x="495" 
d="M57 452l17 62l401 -107l-17 -63zM19 312l17 62l401 -107l-17 -63zM159 170l-62 17l107 401l63 -17zM299 132l-62 17l107 401l63 -17z" />
    <glyph glyph-name="dollar" unicode="$" horiz-adv-x="665" 
d="M106 464q0 17 -3 30.5t-19 36t-50 22.5q35 4 53.5 31t18.5 59v34q0 22 8 37t26 33.5t35.5 28t40.5 9.5h193q14 0 28 -14t19 -20.5t8 -19.5q3 10 8.5 18.5t17.5 22t28 13.5h34v-249h-71v71h-267v-143h35q17 0 29.5 3t34.5 18.5t26 50.5q0 -34 22.5 -49.5t35.5 -19t31 -3.5
h56q36 0 61.5 -24t25.5 -55v-63q0 -27 18.5 -54t52.5 -36q-34 -4 -52.5 -30t-18.5 -58v-37q0 -21 -9 -37t-33 -40t-65 -30h-251q-16 0 -29.5 15t-18 21.5t-7.5 17.5q-3 -12 -8 -19.5t-14 -16.5t-16 -13.5t-16 -4.5h-34v249h71v-71h322v179h-40q-17 0 -30.5 -3t-36 -19
t-22.5 -50q-4 35 -31 53.5t-59 18.5h-64q-12 0 -21 6t-24 19.5t-22 23.5t-7 25v33zM295 -105v1000h70v-1000h-70z" />
    <glyph glyph-name="percent" unicode="%" horiz-adv-x="785" 
d="M353 491q-2 -17 -7.5 -29t-23 -29t-55.5 -17q35 -10 46 -35.5t11 -42.5l-2 -23l-72 -409l106 -19l72 407q4 30 22 47t32.5 24t31.5 7q-34 11 -45.5 36t-11.5 44q0 5 2 19l70 397l-106 18zM112 451q-11 0 -19 4.5t-18.5 15t-13.5 17.5t-3 16v107q0 16 -9.5 30.5
t-26.5 14.5q17 0 26.5 14.5t9.5 30.5v89q0 11 4.5 19t16.5 21.5t34 13.5h105q11 0 17.5 -3.5t21.5 -17t15 -33.5v-89q0 -9 2 -13.5t9.5 -16.5t23.5 -16q-16 0 -25.5 -13.5t-9.5 -30.5v-107q0 -10 -4.5 -18t-16.5 -20t-33 -15h-106zM112 702q0 -9 2 -13.5t9.5 -16.5t23.5 -16
q-16 0 -25.5 -13.5t-9.5 -30.5l-1 -72h107v71q0 17 -9 31t-27 14q18 0 27 14t9 31v53h-106v-52zM567 -59q-11 0 -19 4.5t-18.5 15t-13.5 17.5t-3 16v107q0 16 -9.5 30.5t-26.5 14.5q17 0 26.5 14.5t9.5 30.5v89q0 11 4.5 19t16.5 21.5t34 13.5h105q11 0 17.5 -3.5t21.5 -17
t15 -33.5v-89q0 -9 2 -13.5t9.5 -16.5t23.5 -16q-16 0 -25.5 -13.5t-9.5 -30.5v-107q0 -10 -4.5 -18t-16.5 -20t-33 -15h-106zM567 192q0 -9 2 -13.5t9.5 -16.5t23.5 -16q-16 0 -25.5 -13.5t-9.5 -30.5l-1 -72h107v71q0 17 -9 31t-27 14q18 0 27 14t9 31v53h-106v-52z" />
    <glyph glyph-name="ampersand" unicode="&#x26;" horiz-adv-x="750" 
d="M471 10q4 -10 41 -10q17 0 29 3.5t22.5 15t15 18t7.5 17.5q3 -12 8 -19.5t14 -16.5t16 -13.5t16 -4.5h71v178l-196 -2l-174 436h192v-37h72v215h-243q-9 0 -15 -3.5t-15 -12.5t-15 -17.5t-9 -20.5q-3 11 -7.5 17.5t-18 21.5t-29.5 15h-33v-162zM214 321h276
q0 14 13.5 34.5t40.5 20.5q-13 0 -24.5 7t-17 15t-8.5 14.5t-4 15.5h-293q-18 0 -35.5 -8t-28.5 -18t-15.5 -18.5t-11.5 -38l-14 -56.5q-20 -31 -57 -35q34 0 49.5 -22.5t18.5 -36.5t3 -30l-1 -135q0 -16 14 -24.5t36 -8.5q33 0 48.5 16.5t20 23t7.5 17.5q3 -12 8 -19.5
t14 -16.5t16 -13.5t16 -4.5h71v178h-142v143z" />
    <glyph glyph-name="quotesingle" unicode="'" horiz-adv-x="140" 
d="M40 650v140h60v-140h-60z" />
    <glyph glyph-name="parenleft" unicode="(" horiz-adv-x="300" 
d="M203 85q0 -29 4.5 -48t23 -45.5t57.5 -39.5v-60q-40 0 -70 18t-76.5 59.5t-46.5 115.5v231q0 17 -3 30.5t-19 36t-50 22.5q35 4 53.5 31t18.5 59v185q0 50 10 81.5t45 61t63 49.5t76 20v-53q-27 -15 -48 -40.5t-29.5 -53t-8.5 -66.5v-182q0 -28 18.5 -55t52.5 -36
q-34 -4 -52.5 -30t-18.5 -58v-233z" />
    <glyph glyph-name="parenright" unicode=")" horiz-adv-x="300" 
d="M106 83q0 -29 -4.5 -48t-23 -45.5t-57.5 -39.5v-60q40 0 70 18t76.5 59.5t46.5 115.5v231q0 17 3 30.5t19 36t50 22.5q-35 4 -53.5 31t-18.5 59v185q0 50 -10 81.5t-45 61t-63 49.5t-76 20v-53q27 -15 48 -40.5t29.5 -53t8.5 -66.5v-182q0 -28 -18.5 -55t-52.5 -36
q34 -4 52.5 -30t18.5 -58v-233z" />
    <glyph glyph-name="asterisk" unicode="*" horiz-adv-x="425" 
d="M180 220v355h60v-355h-60zM346 282l-308 178l30 51l308 -177zM41 330l308 177l30 -51l-308 -178z" />
    <glyph glyph-name="plus" unicode="+" horiz-adv-x="490" 
d="M205 185v180h-165v65h165v180h75v-180h170v-65h-170v-180h-75z" />
    <glyph glyph-name="comma" unicode="," horiz-adv-x="200" 
d="M50 63q-11 17 -28 17q17 0 27 14.5t10 29.5q9 0 13.5 2t16.5 9.5t15 24.5q0 -16 13.5 -25.5t30.5 -9.5q0 -16 10 -30t27 -17q-17 -3 -24 -12.5t-10 -16t-3 -13.5q2 -16 2 -23q0 -29 -23 -71.5t-88 -48.5q26 6 41.5 29t15.5 52q0 24 -11 39.5t-26 22.5q0 15 -9 27z" />
    <glyph glyph-name="hyphen" unicode="-" horiz-adv-x="425" 
d="M40 330v65h340v-65h-340z" />
    <glyph glyph-name="period" unicode="." horiz-adv-x="200" 
d="M50 63q-11 17 -28 17q17 0 27 14.5t10 29.5q9 0 13.5 2t16.5 9.5t15 24.5q0 -16 13.5 -25.5t30.5 -9.5q0 -16 10 -30t27 -17q-17 -3 -24 -12.5t-10 -16t-3 -13.5q-14 0 -28.5 -9.5t-14.5 -27.5q0 9 -4.5 15.5t-15.5 14t-26 7.5q0 15 -9 27z" />
    <glyph glyph-name="slash" unicode="/" horiz-adv-x="285" 
d="M108 486q-2 -17 -7.5 -29t-23 -29t-55.5 -17q35 -10 46 -35.5t11 -42.5l-2 -23l-72 -409l106 -19l72 407q4 30 22 47t32.5 24t31.5 7q-34 11 -45.5 36t-11.5 44q0 5 2 19l70 397l-106 18z" />
    <glyph glyph-name="zero" unicode="0" 
d="M214 0q-22 0 -37.5 8.5t-34 27t-27.5 34t-9 37.5v214q0 17 -3 30.5t-19 36t-50 22.5q35 4 53.5 31t18.5 59v178q0 22 8 37t26 33.5t35.5 28t40.5 9.5h211q22 0 36.5 -8.5t34 -27t28.5 -34.5t9 -38v-178q0 -28 18 -55t52 -36q-34 -4 -52.5 -30t-18.5 -58v-214
q0 -21 -9 -37t-33 -40t-65 -30h-213zM214 502q0 -28 18.5 -55t52.5 -36q-34 -4 -52.5 -30t-18.5 -58l-1 -145h214v143q0 17 -3 30.5t-19 36t-50 22.5q35 4 53.5 31t18.5 59v107h-213v-105z" />
    <glyph glyph-name="one" unicode="1" 
d="M277 321q0 17 -3 30.5t-19 36t-50 22.5q35 4 53.5 31t18.5 59v107h-143v178h71q8 0 16.5 -5.5l19.5 -13t20 -30.5q9 21 21.5 30.5l18.5 14t12 4.5h72v-283q0 -28 18.5 -55t52.5 -36q-34 -4 -52.5 -30t-18.5 -58v-145h106v-178h-105q-9 0 -15 3.5t-15 12.5t-15 17.5
t-9 20.5q-3 -11 -7.5 -17.5t-18 -21.5t-29.5 -15h-107v178h107v143z" />
    <glyph glyph-name="two" unicode="2" 
d="M249 0q-9 0 -15 3.5t-15 12.5t-15 17.5t-9 20.5q-3 -11 -7.5 -17.5t-18 -21.5t-29.5 -15h-36v187q0 26 8.5 42.5t16.5 24.5l12 12l242 242q11 9 16.5 14.5t11.5 14t10.5 17.5t4.5 18v35h-250v-72h-72v250h36q16 0 29.5 -15t18 -21t7.5 -18q3 12 8 19.5t14 16.5t16 13.5
t16 4.5h178q21 0 37 -9t34 -27t27 -34t9 -38v-125q0 -11 -2 -16.5t-8.5 -20.5t-19 -27.5l-24.5 -23.5l-285 -286h267v71h72v-249h-33q-9 0 -15 3.5t-15 12.5t-15 17.5t-9 20.5q-3 -11 -7.5 -17.5t-18 -21.5t-29.5 -15h-143z" />
    <glyph glyph-name="three" unicode="3" 
d="M249 0q-9 0 -15 3.5t-15 12.5t-15 17.5t-9 20.5q-3 -11 -7.5 -17.5t-18 -21.5t-29.5 -15h-36v250h72v-72h250v179h-107v-36h-72v34q0 17 12 27t22 17.5t20 10.5q-13 3 -20.5 8t-16 14.5t-13 16.5t-4.5 15v35h72v-35h107v143h-250v-72h-72v250h37q17 0 30 -14.5
t17.5 -20.5t7.5 -18q3 12 8 19.5t13.5 16t16.5 13t16 4.5h177q21 0 37 -9t34 -27t27 -34t9 -38v-213q0 -9 -2.5 -13.5t-11.5 -14.5t-18.5 -16.5t-21.5 -9.5q12 -3 22.5 -12l21 -17.5t10.5 -25.5v-249q0 -21 -9 -37.5t-27 -34t-34 -26t-38 -8.5h-177z" />
    <glyph glyph-name="four" unicode="4" 
d="M404 0q-9 0 -15 3.5t-15 12.5t-15 17.5t-9 20.5q-3 -11 -7.5 -17.5t-18 -21.5t-29.5 -15h-108v178h107v107h-250v110l200 390h86q17 0 30 -14.5t17.5 -20.5t7.5 -18q3 12 8 19.5t13.5 16t16.5 13t16 4.5h71v-178h-108v-215h107v36h72v-36q0 -9 -2.5 -13.5t-12.5 -15.5
t-18.5 -17t-20.5 -9q11 -3 22 -11.5l21.5 -17t10.5 -25.5v-34h-72v36h-107v-107h107v-178h-105zM172 393h122v252z" />
    <glyph glyph-name="five" unicode="5" 
d="M244 0q-9 0 -15 3.5t-15 12.5t-15 17.5t-9 20.5q-3 -11 -7.5 -17.5t-18 -21.5t-29.5 -15h-36v250h72v-72h250v143h-322v464h71q17 0 30 -14.5t17.5 -20.5t7.5 -18q3 12 8 19.5t13.5 16t16.5 13t16 4.5h106q16 0 29.5 -15t18 -21t7.5 -18q3 12 8 19.5t14 16.5t16 13.5
t16 4.5h35v-250h-72v72h-250v-143h215q22 0 37.5 -9t34 -28.5t27 -34t8.5 -37.5v-249q0 -21 -9 -37.5t-27.5 -34t-33 -26t-36.5 -8.5h-179z" />
    <glyph glyph-name="six" unicode="6" 
d="M535 107q0 -22 -9 -37.5t-34.5 -40t-64.5 -29.5h-213q-22 0 -37.5 8.5t-34 27t-27.5 34t-9 37.5v286q0 17 -3 30.5t-19 36t-50 22.5q35 4 53.5 31t18.5 59v106q0 22 8 37t26 33.5t35.5 28t40.5 9.5h176q16 0 29.5 -15t18 -21t7.5 -18q3 12 8 19.5t13.5 16t16.5 13t16 4.5
h34v-250h-72v72h-250v-143h215q22 0 37.5 -9t34 -28.5t27 -34t8.5 -37.5v-248zM214 178h213v179h-213v-179z" />
    <glyph glyph-name="seven" unicode="7" 
d="M498 0v178h-107v157q0 33 18 65.5l36 63.5q22 43 38.5 68.5t49.5 68.5v184h-34q-8 0 -15 -3.5t-15.5 -12t-14.5 -17t-9 -20.5q-3 11 -7.5 17.5t-17.5 21t-30 14.5h-140q-8 0 -15 -3.5t-15.5 -12t-14.5 -17t-9 -20.5q-3 11 -7.5 17.5t-17.5 21t-30 14.5h-37v-250h72v71
h251q-55 -61 -90.5 -129.5t-45 -90.5t-9.5 -64l1 -144h-107v-178h107q16 0 29.5 15t18 21.5t7.5 17.5q3 -12 8 -19.5t14 -16.5t16 -13.5t16 -4.5h106z" />
    <glyph glyph-name="eight" unicode="8" 
d="M213 178h214v179h-214v-179zM427 607h-213v-143h213v143zM535 465q0 -9 -3 -14.5t-11 -14.5t-17.5 -15.5t-21.5 -9.5q12 -3 22.5 -12l20 -16.5t9.5 -23.5v-10q0 -13 3.5 -20.5t20 -30.5t48.5 -31q-34 -4 -52.5 -30t-18.5 -58l-1 -72q0 -21 -9 -37t-33 -40t-65 -30h-213
q-22 0 -37.5 8.5t-34 27t-27.5 34t-9 37.5l1 72q0 17 -3 30.5t-19 36t-50 22.5q37 4 54.5 31t17.5 51v8q0 16 11.5 25l21.5 16.5t20 10.5q-13 3 -20.5 8t-16 14.5t-13 16.5t-4.5 15v214q0 22 8 37t26 33.5t35.5 28t40.5 9.5h211q22 0 36.5 -8.5t34 -27t28.5 -34.5t9 -38
v-213z" />
    <glyph glyph-name="nine" unicode="9" 
d="M202 357q-22 0 -37 8t-34 26t-28 34t-9 38v215q0 22 9 38t27 33t36 26.5t40 9.5h211q21 0 37 -9t34 -27t27 -33.5t9 -37.5v-178q0 -28 18.5 -55t52.5 -36q-34 -4 -52.5 -30t-18.5 -58v-214q0 -21 -9 -37t-27 -34t-34 -27t-38 -9h-178q-9 0 -15 3.5t-15 12.5t-15 17.5
t-9 20.5q-3 -11 -7.5 -17.5t-18 -21.5t-29.5 -15h-35v249h72v-71h250v179h-214zM202 464h214v143h-214v-143z" />
    <glyph glyph-name="colon" unicode=":" horiz-adv-x="200" 
d="M50 63q-11 17 -28 17q17 0 27 14.5t10 29.5q9 0 13.5 2t16.5 9.5t15 24.5q0 -16 13.5 -25.5t30.5 -9.5q0 -16 10 -30t27 -17q-17 -3 -24 -12.5t-10 -16t-3 -13.5q-14 0 -28.5 -9.5t-14.5 -27.5q0 9 -4.5 15.5t-15.5 14t-26 7.5q0 15 -9 27zM50 393q-11 17 -28 17
q17 0 27 14.5t10 29.5q9 0 13.5 2t16.5 9.5t15 24.5q0 -16 13.5 -25.5t30.5 -9.5q0 -16 10 -30t27 -17q-17 -3 -24 -12.5t-10 -16t-3 -13.5q-14 0 -28.5 -9.5t-14.5 -27.5q0 9 -4.5 15.5t-15.5 14t-26 7.5q0 15 -9 27z" />
    <glyph glyph-name="semicolon" unicode=";" horiz-adv-x="200" 
d="M50 398q-11 17 -28 17q17 0 27 14.5t10 29.5q9 0 13.5 2t16.5 9.5t15 24.5q0 -16 13.5 -25.5t30.5 -9.5q0 -16 10 -30t27 -17q-17 -3 -24 -12.5t-10 -16t-3 -13.5q-14 0 -28.5 -9.5t-14.5 -27.5q0 9 -4.5 15.5t-15.5 14t-26 7.5q0 15 -9 27zM50 63q-11 17 -28 17
q17 0 27 14.5t10 29.5q9 0 13.5 2t16.5 9.5t15 24.5q0 -16 13.5 -25.5t30.5 -9.5q0 -16 10 -30t27 -17q-17 -3 -24 -12.5t-10 -16t-3 -13.5q2 -16 2 -23q0 -29 -23 -71.5t-88 -48.5q26 6 41.5 29t15.5 52q0 24 -11 39.5t-26 22.5q0 15 -9 27z" />
    <glyph glyph-name="less" unicode="&#x3c;" horiz-adv-x="505" 
d="M408 0l-389 391l394 394h51v-49l-339 -345l339 -339v-52h-56z" />
    <glyph glyph-name="equal" unicode="=" horiz-adv-x="495" 
d="M40 400v65h415v-65h-415zM40 255v65h415v-65h-415z" />
    <glyph glyph-name="greater" unicode="&#x3e;" horiz-adv-x="505" 
d="M86 -2l389 391l-394 394h-51v-49l339 -345l-339 -339v-52h56z" />
    <glyph glyph-name="question" unicode="?" horiz-adv-x="425" 
d="M35 678q0 21 9 37t27 34t35 27t40 9h139q21 0 37 -9t34 -27t27 -34t9 -38v-97q0 -49 -33.5 -87l-58.5 -67.5t-37.5 -57t-12.5 -63.5v-91h-109v88q0 51 15.5 85.5t48 78.5l57.5 78q23 37 23 75q0 26 -22.5 42.5t-51.5 16.5q-26 0 -47.5 -13t-21.5 -36v-58h-107v107z
M145 63q-11 17 -28 17q17 0 24.5 11.5t10 18.5t2.5 14q9 0 13.5 2t16.5 9.5t15 24.5q0 -16 13.5 -25.5t30.5 -9.5q0 -8 2.5 -14t10 -18t24.5 -15q-17 -3 -24 -12.5t-10 -16t-3 -13.5q-16 0 -29.5 -9.5t-13.5 -27.5q0 9 -4.5 15.5t-15.5 14t-26 7.5q0 9 -2 13.5t-7 13.5z" />
    <glyph glyph-name="at" unicode="@" horiz-adv-x="810" 
d="M488 319v77h-127v-77h127zM580 325q26 8 31.5 22t5.5 43v125v192h-413v-190v-179l-1 -230h532v-108h-531q-22 0 -37.5 8.5t-34 27t-27.5 34t-9 37.5v229q0 17 -3 30.5t-19 36t-50 22.5q35 4 53.5 31t18.5 59v193q0 22 8 37t26 33.5t35.5 28t40.5 9.5h411q22 0 36.5 -8.5
t34 -27t28.5 -34.5t9 -38v-193q0 -28 18 -55t52 -36q-19 -2 -33 -14l-22 -19t-11.5 -17t-3.5 -23v-15v-27q0 -26 -16 -47.5t-36.5 -34t-40 -20t-37.5 -7.5q-15 0 -26 4.5t-23.5 17t-16.5 27.5q-1 -7 -6 -14t-14 -16t-20 -9h-102q-15 0 -27 6.5t-25 19.5t-19.5 23.5
t-6.5 26.5v84q0 15 6 26t18.5 24t26 20.5t29.5 7.5h99v52h-154v-52h-26v163q13 -3 22 -12t13.5 -15t6.5 -14q1 8 5.5 14.5t13.5 15.5t20 9h75q15 0 27 -6.5t24 -17.5t19.5 -22t7.5 -31v-213q18 0 38 6z" />
    <glyph glyph-name="A" unicode="A" horiz-adv-x="750" 
d="M214 178h72v-178h-71q-9 0 -15 3.5t-15 12.5t-15 17.5t-9 20.5q-3 -11 -7.5 -17.5t-18 -21.5t-29.5 -15h-71v178h71l19 59q3 8 3 15q0 10 -6.5 23.5t-16 31.5t-35.5 32q20 15 25.5 20l44.5 42q30 26 47 43t26 41l44 122h-44v178h107q16 0 29.5 -15t18 -21t7.5 -18
q3 12 8 19.5t14 16.5t16 13.5t16 4.5h106v-178h-42l42 -123q16 -47 52 -86.5t91 -59.5q-9 -10 -17 -21t-12 -19t-16.5 -25t-12.5 -29l2 -11l21 -55h72v-178h-71q-9 0 -15 3.5t-15 12.5t-15 17.5t-9 20.5q-3 -11 -7.5 -17.5t-18 -21.5t-29.5 -15h-71v178h71l-39 107h-242z
M294 393l162 -1l-80 215z" />
    <glyph glyph-name="B" unicode="B" horiz-adv-x="680" 
d="M393 357q15 0 25 -5.5t22 -17.5t17.5 -22t5.5 -25v-109h-213v179h143zM250 785q-9 0 -15 -3.5t-15 -12.5t-15 -17.5t-9 -20.5q-3 11 -7.5 17.5t-18 21.5t-29.5 15h-106v-178h106v-107q0 -20 -2.5 -30t-17 -33t-51.5 -27q34 0 49.5 -22.5t19 -35.5t3.5 -31l-1 -143h-107
v-178h107q16 0 29.5 15t18 21.5t7.5 17.5q3 -12 8 -19.5t14 -16.5t16 -13.5t16 -4.5h210q21 0 38 9t36.5 27.5t28 33t8.5 37.5v35q0 33 18.5 59t52.5 30q-34 9 -48 29.5t-18.5 31.5t-4.5 25v41q0 7 -4 15l-9 17.5t-23 19.5q20 8 27.5 23.5t7.5 27.5v39q0 32 18.5 58t52.5 30
q-34 9 -48 29.5t-18.5 31.5t-4.5 25v15q0 13 -6.5 25.5t-27.5 32.5t-36.5 29t-36.5 9h-213zM463 607v-79q0 -13 -8 -24t-20.5 -21.5t-27.5 -14.5t-35 -4h-122v143h213z" />
    <glyph glyph-name="C" unicode="C" horiz-adv-x="565" 
d="M391 0q16 0 29.5 15t18 21.5t7.5 17.5q3 -12 8 -19.5t14 -16.5t16 -13.5t16 -4.5h34v249h-71v-71h-249v143q0 32 18.5 58t52.5 30q-34 9 -52.5 36t-18.5 55v106h248v-71h73v250h-35q-9 0 -15 -3.5t-15 -12.5t-15 -17.5t-9 -20.5q-4 12 -8 17.5t-18 21.5t-29 16h-175
q-23 0 -40 -8.5t-35 -27t-26.5 -34.5t-8.5 -38v-178q0 -17 -3 -29.5t-18.5 -34.5t-50.5 -26q34 0 49.5 -22.5t19 -35.5t3.5 -31v-214q0 -21 9 -37t27 -34t34 -27t38 -9h177z" />
    <glyph glyph-name="D" unicode="D" horiz-adv-x="680" 
d="M463 606h-213v-105q0 -28 18.5 -55t52.5 -36q-34 -4 -52.5 -30t-18.5 -58l4 -145h209v429zM250 0q-9 0 -15 3.5t-15 12.5t-15 17.5t-9 20.5q-3 -11 -7.5 -17.5t-18 -21.5t-29.5 -15h-107v178h107l1 143q0 17 -3 30.5t-19 36t-50 22.5q37 4 51 25.5t17 35t3 29.5v107h-106
v178h106q16 0 29.5 -15t18 -21t7.5 -18q3 12 8 19.5t14 16.5t16 13.5t16 4.5h213q22 0 36.5 -8.5t34 -27t28.5 -34.5t9 -38v-178q0 -28 18 -55t52 -36q-34 -4 -52.5 -30t-18.5 -58v-214q0 -21 -9 -37t-33 -40t-65 -30z" />
    <glyph glyph-name="E" unicode="E" horiz-adv-x="570" 
d="M534 0v249h-71v-71h-213v179h106v-36h72v35q0 17 -12.5 27l-21 17t-20.5 10q12 3 20.5 9t16.5 15t12.5 16t4.5 15v34h-72v-35h-107v143h214v-72h72v250h-35q-9 0 -15 -3.5t-15 -12.5t-15 -17.5t-9 -20.5q-3 11 -7.5 17.5t-18 21.5t-29.5 15h-141q-9 0 -15 -3.5t-15 -12.5
t-15 -17.5t-9 -20.5q-3 11 -7.5 17.5t-18 21.5t-29.5 15h-106v-178h106v-107q0 -20 -2.5 -30t-17 -33t-51.5 -27q34 0 49.5 -22.5t19 -35.5t3.5 -31l-1 -143h-107v-178h107q16 0 29.5 15t18 21.5t7.5 17.5q3 -12 8 -19.5t14 -16.5t16 -13.5t16 -4.5h141q16 0 29.5 15
t18 21.5t7.5 17.5q3 -12 8 -19.5t14 -16.5t16 -13.5t16 -4.5h34z" />
    <glyph glyph-name="F" unicode="F" horiz-adv-x="570" 
d="M321 0v178h-71v179h106v-36h72v35q0 17 -12.5 27l-21 17t-20.5 10q12 3 20.5 9t16.5 15t12.5 16t4.5 15v34h-72v-35h-107v143h214v-72h72v250h-35q-9 0 -15 -3.5t-15 -12.5t-15 -17.5t-9 -20.5q-3 11 -7.5 17.5t-18 21.5t-29.5 15h-141q-9 0 -15 -3.5t-15 -12.5
t-15 -17.5t-9 -20.5q-3 11 -7.5 17.5t-18 21.5t-29.5 15h-106v-178h106v-107q0 -20 -2.5 -30t-17 -33t-51.5 -27q34 0 49.5 -22.5t19 -35.5t3.5 -31l-1 -143h-70v-178h70q16 0 29.5 15t18 21.5t7.5 17.5q3 -12 8 -19.5t14 -16.5t16 -13.5t16 -4.5h71z" />
    <glyph glyph-name="G" unicode="G" horiz-adv-x="595" 
d="M391 0q16 0 29.5 15t18 21.5t7.5 17.5q3 -12 8 -19.5t14 -16.5t16 -13.5t16 -4.5h36l-1 357h35v71h-214v-71h107v-179h-249v145q0 32 18.5 58t52.5 30q-34 9 -52.5 36t-18.5 55v105h249v-72h72v250h-35q-9 0 -15 -3.5t-15 -12.5t-15 -17.5t-9 -20.5q-3 11 -7.5 17.5
t-18 21.5t-29.5 15h-175q-23 0 -39 -8t-43.5 -34t-27.5 -65v-178q0 -17 -3 -29.5t-18.5 -34.5t-50.5 -26q34 0 49.5 -22.5t19 -35.5t3.5 -31v-214q0 -21 9 -37t27 -34t34 -27t38 -9h177z" />
    <glyph glyph-name="H" unicode="H" horiz-adv-x="645" 
d="M215 357h213v-179h-72v-178h71q16 0 29.5 15t18 21.5t7.5 17.5q3 -12 8 -19.5t14 -16.5t16 -13.5t16 -4.5h71v178h-71v143q0 32 18.5 58t52.5 30q-34 9 -52.5 36t-18.5 55v107h71v178h-71q-9 0 -15 -3.5t-15 -12.5t-15 -17.5t-9 -20.5q-3 11 -7.5 17.5t-18 21.5t-29.5 15
h-70v-178h71v-143h-217l3 143h72v178h-71q-9 0 -15 -3.5t-15 -12.5t-15 -17.5t-9 -20.5q-3 11 -7.5 17.5t-18 21.5t-29.5 15h-71v-178h71l1 -107q0 -17 -3 -29.5t-18.5 -34.5t-50.5 -26q34 0 49.5 -22.5t19 -35.5t3.5 -31l-1 -143h-71v-178h71q16 0 29.5 15t18 21.5
t7.5 17.5q3 -12 8 -19.5t14 -16.5t16 -13.5t16 -4.5h71v178h-71v179z" />
    <glyph glyph-name="I" unicode="I" horiz-adv-x="350" 
d="M230 178h71v-178h-71q-9 0 -15 3.5t-15 12.5t-15 17.5t-9 20.5q-3 -11 -7.5 -17.5t-18 -21.5t-29.5 -15h-71v178h71v143q0 20 -2.5 31.5t-18.5 34.5t-50 23q37 4 51 25.5t17 35t3 29.5v107h-71v178h71q16 0 29.5 -15t18 -21t7.5 -18q3 12 8 19.5t14 16.5t16 13.5t16 4.5
h71v-178h-72v-112q0 -17 3 -29.5t18.5 -34.5t50.5 -26q-34 0 -49.5 -22.5t-18.5 -36.5t-3 -30v-138z" />
    <glyph glyph-name="J" unicode="J" horiz-adv-x="535" 
d="M178 0q-16 0 -29.5 15t-18 21.5t-7.5 17.5q-3 -12 -8 -19.5t-14 -16.5t-16 -13.5t-16 -4.5h-34v249h71v-71h214v143q0 20 -2.5 31.5t-18.5 34.5t-50 23q37 4 51 25.5t17 35t3 29.5v107h-71v178h71q16 0 29.5 -15t18 -21t7.5 -18q3 12 8 19.5t14 16.5t16 13.5t16 4.5h71
v-178h-72v-112q0 -17 3 -29.5t18.5 -34.5t50.5 -26q-34 0 -53 -27.5t-19 -56.5v-214q0 -21 -9 -37t-26.5 -33.5t-35.5 -27t-41 -9.5h-138z" />
    <glyph glyph-name="K" unicode="K" horiz-adv-x="640" 
d="M427 607h-71v178h71q16 0 29.5 -15t18 -21t7.5 -18q3 12 8 19.5t14 16.5t16 13.5t16 4.5h71v-178h-72v-107q0 -20 -2.5 -30t-17 -33t-51.5 -27q34 0 49.5 -22.5t18.5 -36.5t3 -30v-143h71v-178h-70q-9 0 -15 3.5t-15 12.5t-15 17.5t-9 20.5q-3 -11 -7.5 -17.5t-18 -21.5
t-29.5 -15h-71v178h71l-1 72q0 17 -8 31t-21.5 30.5t-30.5 31t-46 14.5h-106v-179h71v-178h-70q-9 0 -15 3.5t-15 12.5t-15 17.5t-9 20.5q-3 -11 -7.5 -17.5t-18 -21.5t-29.5 -15h-71v178h71v143q0 20 -2.5 31.5t-18.5 34.5t-50 23q37 4 51 25.5t17 35t3 29.5v107h-71v178
h71q16 0 29.5 -15t18 -21t7.5 -18q3 12 8 19.5t14 16.5t16 13.5t16 4.5h70v-178h-71v-143h102q26 0 48 16l31.5 29t23 22.5t7.5 26.5z" />
    <glyph glyph-name="L" unicode="L" horiz-adv-x="570" 
d="M250 178h213v71h71v-249h-34q-9 0 -15 3.5t-15 12.5t-15 17.5t-9 20.5q-3 -11 -7.5 -17.5t-18 -21.5t-29.5 -15h-141q-9 0 -15 3.5t-15 12.5t-15 17.5t-9 20.5q-3 -11 -7.5 -17.5t-18 -21.5t-29.5 -15h-107v178h107l1 143q0 17 -3 30.5t-19 36t-50 22.5q37 4 51 25.5
t17 35t3 29.5v107h-106v178h106q16 0 29.5 -15t18 -21t7.5 -18q3 12 8 19.5t14 16.5t16 13.5t16 4.5h105v-178h-104v-107q0 -20 2.5 -30t17 -33t51.5 -27q-34 0 -49.5 -22.5t-19 -35.5t-3.5 -31v-143z" />
    <glyph glyph-name="M" unicode="M" horiz-adv-x="890" 
d="M106 178h-71v-178h71q16 0 29.5 15t18 21.5t7.5 17.5q3 -12 8 -19.5t14 -16.5t16 -13.5t16 -4.5h71v178h-72v429h70l109 -393h105l108 393h72v-429h-72v-178h71q16 0 29.5 15t18 21.5t7.5 17.5q3 -12 8 -19.5t14 -16.5t16 -13.5t16 -4.5h71v178h-71v143q0 20 2.5 31.5
t18.5 34.5t50 23q-37 4 -51 25.5t-17 34.5t-3 30v107h70v178h-69q-9 0 -15 -3.5t-15 -12.5t-15 -17.5t-9 -20.5q-3 11 -7.5 17.5t-18 21.5t-29.5 15h-108l-126 -448l-124 448h-106q-9 0 -15 -3.5t-15 -12.5t-15 -17.5t-9 -20.5q-3 11 -7.5 17.5t-18 21.5t-29.5 15h-71v-178
h72v-108q0 -20 -2.5 -30t-17 -33t-51.5 -27q34 0 49.5 -22.5t18.5 -36.5t3 -30v-142z" />
    <glyph glyph-name="N" unicode="N" horiz-adv-x="750" 
d="M106 178h-71v-178h71q16 0 29.5 15t18 21.5t7.5 17.5q3 -12 8 -19.5t14 -16.5t16 -13.5t16 -4.5h71v178h-72v473l285 -580v-71h35q16 0 29.5 15t18 21.5t7.5 17.5q3 -12 8 -19.5t14 -16.5t16 -13.5t16 -4.5h71v178h-71v143q0 20 2.5 31.5t18.5 34.5t50 23q-35 4 -53.5 31
t-18.5 59v42q0 25 23 45t49 20v178h-70q-9 0 -15 -3.5t-15 -12.5t-15 -17.5t-9 -20.5q-3 11 -7.5 17.5t-18 21.5t-29.5 15h-71v-178h71v-387l-286 565h-35q-9 0 -15 -3.5t-15 -12.5t-15 -17.5t-9 -20.5q-3 11 -7.5 17.5t-18 21.5t-29.5 15h-71v-178h72v-108q0 -20 -2.5 -30
t-17 -33t-51.5 -27q34 0 49.5 -22.5t18.5 -36.5t3 -30v-142zM106 178h-71v-178h71q16 0 29.5 15t18 21.5t7.5 17.5q3 -12 8 -19.5t14 -16.5t16 -13.5t16 -4.5h71v178h-72h-108z" />
    <glyph glyph-name="O" unicode="O" 
d="M214 -15q-22 0 -37.5 8.5t-34 27t-27.5 34t-9 37.5v229q0 17 -3 30.5t-19 36t-50 22.5q35 4 53.5 31t18.5 59v193q0 22 8 37t26 33.5t35.5 28t40.5 9.5h211q22 0 36.5 -8.5t34 -27t28.5 -34.5t9 -38v-193q0 -28 18 -55t52 -36q-34 -4 -52.5 -30t-18.5 -58v-229
q0 -21 -9 -37t-33 -40t-65 -30h-213zM214 502q0 -28 18.5 -55t52.5 -36q-34 -4 -52.5 -30t-18.5 -58l-1 -145h214v143q0 17 -3 30.5t-19 36t-50 22.5q35 4 53.5 31t18.5 59v107h-213v-105z" />
    <glyph glyph-name="P" unicode="P" horiz-adv-x="565" 
d="M214 178h71v-178h-70q-9 0 -15 3.5t-15 12.5t-15 17.5t-9 20.5q-3 -11 -7.5 -17.5t-18 -21.5t-29.5 -15h-71v178h71v143q0 20 -2.5 31.5t-18.5 34.5t-50 23q37 4 51 25.5t17 35t3 29.5v107h-71v178h71q16 0 29.5 -15t18 -21t7.5 -18q3 12 8 19.5t14 16.5t16 13.5t16 4.5
h212q18 0 32 -6t36 -26.5t31 -36.5t9 -38v-256q0 -13 -5.5 -21t-18.5 -20t-24 -18t-25 -6h-248v-179zM427 607h-213v-143h213v143z" />
    <glyph glyph-name="Q" unicode="Q" 
d="M427 321q0 17 -3 30.5t-19 36t-50 22.5q35 4 53.5 31t18.5 59v107h-213v-105q0 -28 18.5 -55t52.5 -36q-34 -4 -52.5 -30t-18.5 -58v-63q0 -20 20 -32l39.5 -24.5t57 -20t68.5 -7.5h16q9 2 12 2v143zM427 0h-213q-22 0 -37.5 8.5t-34 27t-27.5 34t-9 37.5v214
q0 17 -3 30.5t-19 36t-50 22.5q35 4 53.5 31t18.5 59v178q0 22 8 37t26 33.5t35.5 28t40.5 9.5h211q22 0 36.5 -8.5t34 -27t28.5 -34.5t9 -38v-178q0 -28 18 -55t52 -36q-34 -4 -52.5 -30t-18.5 -58v-214q0 -11 -3 -18.5t-10.5 -19.5t-22.5 -20q10 -8 18.5 -17t26.5 -34.5
t26 -68.5h-51q-37 0 -60.5 23.5t-30.5 47.5z" />
    <glyph glyph-name="R" unicode="R" horiz-adv-x="604" 
d="M387 607h-173v-143h173v143zM214 357v-179h71v-178h-70q-9 0 -15 3.5t-15 12.5t-15 17.5t-9 20.5q-3 -11 -7.5 -17.5t-18 -21.5t-29.5 -15h-76l5 178h71v143q0 20 -2.5 31.5t-18.5 34.5t-50 23q37 4 51 25.5t17 35t3 29.5v107h-71v178h71q16 0 29.5 -15t18 -21t7.5 -18
q3 12 8 19.5t14 16.5t16 13.5t16 4.5h178q21 0 37 -9t34 -27t27 -33.5t9 -37.5v-36q0 -20 2.5 -30t17 -33t51.5 -27q-34 0 -49 -21.5t-19 -41.5t-7 -29t-7.5 -25.5t-18.5 -34.5t-44 -27q35 -15 49.5 -40t19 -39t4.5 -30v-86h71v-178h-178v252q0 14 -6.5 29t-26.5 36
t-35.5 30.5t-36.5 9.5h-73z" />
    <glyph glyph-name="S" unicode="S" horiz-adv-x="665" 
d="M106 464q0 17 -3 30.5t-19 36t-50 22.5q35 4 53.5 31t18.5 59v34q0 22 8 37t26 33.5t35.5 28t40.5 9.5h193q14 0 28 -14t19 -20.5t8 -19.5q3 10 8.5 18.5t17.5 22t28 13.5h34v-249h-71v71h-267v-143h35q17 0 29.5 3t34.5 18.5t26 50.5q0 -34 22.5 -49.5t35.5 -19t31 -3.5
h56q36 0 61.5 -24t25.5 -55v-63q0 -27 18.5 -54t52.5 -36q-34 -4 -52.5 -30t-18.5 -58v-37q0 -21 -9 -37t-33 -40t-65 -30h-251q-16 0 -29.5 15t-18 21.5t-7.5 17.5q-3 -12 -8 -19.5t-14 -16.5t-16 -13.5t-16 -4.5h-34v249h71v-71h322v179h-40q-17 0 -30.5 -3t-36 -19
t-22.5 -50q-4 35 -31 53.5t-59 18.5h-64q-12 0 -21 6t-24 19.5t-22 23.5t-7 25v33z" />
    <glyph glyph-name="T" unicode="T" horiz-adv-x="525" 
d="M321 607h106v-72h72v286h-36v-36h-142q-9 0 -15 -3.5t-15 -12.5t-15 -17.5t-9 -20.5q-3 11 -7.5 17.5t-18 21.5t-29.5 15h-141v36h-37v-286h72v72h107v-107q0 -20 -2.5 -30t-17 -33t-51.5 -27q34 0 49.5 -22.5t18.5 -36.5t3 -30v-143h-71v-178h71q16 0 29.5 15t18 21.5
t7.5 17.5q3 -12 8 -19.5t14 -16.5t16 -13.5t16 -4.5h71v178h-71v138q0 20 2.5 31.5t18.5 34.5t50 23q-35 4 -53.5 31t-18.5 59v112z" />
    <glyph glyph-name="U" unicode="U" horiz-adv-x="635" 
d="M535 500q0 -28 18 -55t52 -36q-34 -4 -52.5 -30t-18.5 -58v-214q0 -21 -9 -37t-33 -40t-65 -30h-213q-22 0 -37.5 8.5t-34 27t-27.5 34t-9 37.5v214q0 17 -3 30.5t-19 36t-50 22.5q35 4 53.5 31t18.5 59l-1 107h-71v178h71q16 0 29.5 -15t18 -21t7.5 -18q3 12 8 19.5
t14 16.5t16 13.5t16 4.5h71v-178h-72l1 -105q0 -28 18.5 -55t52.5 -36q-34 -4 -52.5 -30t-18.5 -58l-1 -145h214v143q0 17 -3 30.5t-19 36t-50 22.5q35 4 53.5 31t18.5 59l1 107h-71v178h71q16 0 29.5 -15t18 -21t7.5 -18q3 12 8 19.5t14 16.5t16 13.5t16 4.5h71v-178h-77z
" />
    <glyph glyph-name="V" unicode="V" horiz-adv-x="740" 
d="M376 180l70 168q6 17 6 32q0 10 -6 33t-39 40q12 -2 18 -2q25 0 48.5 15.5t32.5 46.5l27 94h-71v178h71q16 0 29.5 -15t18 -21t7.5 -18q3 12 8 19.5t14 16.5t16 13.5t16 4.5h71v-178h-77l-29 -131q-4 -17 -4.5 -21t-0.5 -16q0 -9 6 -31.5t34 -41.5q-14 2 -19 2
q-23 0 -39.5 -10.5t-22.5 -19.5t-16 -30l-66 -131h57v-177h-107q-17 0 -30 14.5t-17.5 21t-7.5 17.5q-3 -12 -8 -19.5t-13.5 -16t-16.5 -13t-16 -4.5h-107v178h53l-61 129q-8 20 -13 29t-24 21t-41 12q-10 0 -21 -3q33 16 39 40t6 32q0 10 -3 20.5l-5 17.5l-38 131h-71v178
h71q16 0 29.5 -15t18 -21t7.5 -18q3 12 8 19.5t14 16.5t16 13.5t16 4.5h71v-178h-72l31 -93q8 -26 29 -39.5t36 -17.5t33 -4q-30 -16 -36 -35t-7 -26t-1 -13t2 -15t5 -18z" />
    <glyph glyph-name="W" unicode="W" horiz-adv-x="1035" 
d="M425 178h38v-178h-70q-17 0 -30 14.5t-17.5 21t-7.5 17.5q-3 -12 -8 -19.5t-13.5 -16t-16.5 -13t-16 -4.5h-71v178h35l-43 129q-4 11 -11 24.5t-26 25.5t-41 12q-10 0 -21 -3q33 16 39 40t6 32q0 10 -3 20.5l-5 17.5l-38 131h-71v178h71q16 0 29.5 -15t18 -21t7.5 -18
q3 12 8 19.5t14 16.5t16 13.5t16 4.5h71v-178h-72l127 -393l121 393h-71v178h71q16 0 29.5 -15t18 -21t7.5 -18q3 12 8 19.5t14 16.5t16 13.5t16 4.5h71v-178h-77l136 -395l120 395h-71v178h71q16 0 29.5 -15t18 -21t7.5 -18q3 12 8 19.5t14 16.5t16 13.5t16 4.5h71v-178
h-77l-31 -132q-2 -11 -4.5 -23.5t-2.5 -18.5q0 -5 5.5 -28.5t38.5 -39.5q-11 3 -21 3q-22 0 -45 -14.5t-33 -47.5l-44 -128h34v-178h-70q-17 0 -30 14.5t-17.5 21t-7.5 17.5q-3 -12 -8 -19.5t-13.5 -16t-16.5 -13t-16 -4.5h-71v178h43l-98 292z" />
    <glyph glyph-name="X" unicode="X" horiz-adv-x="655" 
d="M554 178h71v-178h-71q-16 0 -29.5 15t-18 21.5t-7.5 17.5q-3 -12 -8 -19.5t-14 -16.5t-16 -13.5t-16 -4.5h-71v178h72l-341 429h-71v178h71q16 0 29.5 -15t18 -21t7.5 -18q3 12 8 19.5t14 16.5t16 13.5t16 4.5h71v-178h-72zM214 178h71v-178h-71q-16 0 -29.5 15t-18 21.5
t-7.5 17.5q-3 -12 -8 -19.5t-14 -16.5t-16 -13.5t-16 -4.5h-71v178h77l334 429h-71v178h71q16 0 29.5 -15t18 -21t7.5 -18q3 12 8 19.5t14 16.5t16 13.5t16 4.5h71v-178h-77z" />
    <glyph glyph-name="Y" unicode="Y" horiz-adv-x="745" 
d="M481 427q-15 -11 -34.5 -29t-19.5 -38q0 -26 23 -44t51 -14q-38 -6 -55.5 -33.5t-17.5 -60.5v-30h71v-178h-71q-9 0 -15 3.5t-15 12.5t-15 17.5t-9 20.5q-3 -11 -7.5 -17.5t-18 -21.5t-29.5 -15h-71v178h72v35q0 17 -3 30.5t-19 36t-50 22.5q28 -3 52.5 15.5t20.5 44.5
q-2 13 -22 37.5t-27 29.5l-179 178h-59v178h71q16 0 29.5 -15t18 -21t7.5 -18q3 12 8 19.5t14 16.5t16 13.5t16 4.5h71v-178h-90l181 -187l177 187h-89v178h71q16 0 29.5 -15t18 -21t7.5 -18q3 12 8 19.5t14 16.5t16 13.5t16 4.5h71v-178h-57z" />
    <glyph glyph-name="Z" unicode="Z" horiz-adv-x="560" 
d="M463 178v71h71v-249h-34q-9 0 -15 3.5t-15 12.5t-15 17.5t-9 20.5q-3 -11 -7.5 -17.5t-18 -21.5t-29.5 -15h-213q-9 0 -15 3.5t-15 12.5t-15 17.5t-9 20.5q-3 -11 -7.5 -17.5t-18 -21.5t-29.5 -15h-35v192l127 128l19 20.5t20.5 31.5t13.5 58v21q-3 11 -4 15q21 -7 43 -7
q33 0 54 13.5t29.5 23.5l17.5 20l89 91h-337v-72h-72v250h35q9 0 15 -3.5t15 -12.5t15 -17.5t9 -20.5q3 11 7.5 17.5t18 21.5t29.5 15h214q9 0 15 -3.5t15 -12.5t15 -17.5t9 -20.5q3 11 7.5 17.5t18 21.5t29.5 15h33v-192l-122 -129l-37 -36q-24 -36 -24 -76q0 -15 3 -30
q-15 3 -28 3q-37 0 -65 -16t-42.5 -32.5l-24.5 -27.5l-66 -71h335z" />
    <glyph glyph-name="bracketleft" unicode="[" horiz-adv-x="390" 
d="M92 301q0 17 -3 30.5t-19 36t-50 22.5q35 4 53.5 31t18.5 59v412h258v-71h-150v-339q0 -28 18.5 -55t52.5 -36q-34 -4 -52.5 -30t-18.5 -58v-339h150v-72h-258v409z" />
    <glyph glyph-name="backslash" unicode="\" horiz-adv-x="285" 
d="M108 288q-2 17 -7.5 29t-23 29t-55.5 17q35 10 46 35.5t11 42.5l-2 23l-72 409l106 19l72 -407q4 -30 22 -47t32.5 -24t31.5 -7q-34 -11 -45.5 -36t-11.5 -44q0 -5 2 -19l70 -397l-106 -18z" />
    <glyph glyph-name="bracketright" unicode="]" horiz-adv-x="390" 
d="M293 301q0 17 3 30.5t19 36t50 22.5q-35 4 -53.5 31t-18.5 59v412h-258v-71h150v-339q0 -28 -18.5 -55t-52.5 -36q34 -4 52.5 -30t18.5 -58v-339h-150v-72h258v409z" />
    <glyph glyph-name="asciicircum" unicode="^" horiz-adv-x="450" 
d="M413 571h-54l-160 159v55h56l158 -160v-54zM253 729l-158 -160h-56v55l160 159h54v-54z" />
    <glyph glyph-name="underscore" unicode="_" horiz-adv-x="567" 
d="M0 -108v75h567v-75h-567z" />
    <glyph glyph-name="grave" unicode="`" horiz-adv-x="270" 
d="M248 571h-54l-160 159v55h56l158 -160v-54z" />
    <glyph glyph-name="a" unicode="a" horiz-adv-x="450" 
d="M35 213q0 22 8 37t26 33.5t35.5 28t40.5 9.5h139v71h-214v-71h-36v225q13 -3 18.5 -5.5t16 -14t15 -17.5t7.5 -18q3 12 8 19.5t14 16.5t16 13.5t16 4.5h105q22 0 36.5 -8.5t34 -27t28.5 -34.5t9 -38l-1 -295h71v-152h-34q-9 0 -15 3.5t-15 12.5t-15 17.5t-9 20.5
q-3 -11 -7.5 -17.5t-18 -21.5t-29.5 -15h-142q-22 0 -37.5 8.5t-34 27t-27.5 34t-9 37.5v116zM284 142v107h-177v-107h177z" />
    <glyph glyph-name="b" unicode="b" horiz-adv-x="450" 
d="M359 142v250h-177v-250h177zM182 535h139q23 0 40 -8.5t35 -27t26.5 -34.5t8.5 -38v-320q0 -21 -9 -37t-27 -34t-34 -27t-38 -9h-142q-16 0 -29.5 15t-18 21.5t-7.5 17.5q-3 -12 -8 -19.5t-14 -16.5t-16 -13.5t-16 -4.5h-34v142h71l-2 500h-72v143h35q9 0 15 -3.5
t15 -12.5t15 -17.5t9 -20.5q3 11 7.5 17.5t18 21.5t29.5 15h35v-143h-32v-107z" />
    <glyph glyph-name="c" unicode="c" horiz-adv-x="385" 
d="M351 214h-36v-72h-208v250h209v-71h36v225q-13 -3 -18.5 -5.5t-16 -14t-15 -17.5t-7.5 -18q-3 12 -8 19.5t-14 16.5t-16 13.5t-16 4.5h-99q-22 0 -36.5 -8.5t-34 -27t-28.5 -34.5t-9 -38v-341q0 -22 9 -37.5t27.5 -33.5t34.5 -26.5t38 -8.5h101q23 0 38 8t33 27t27 35
t9 37v117z" />
    <glyph glyph-name="d" unicode="d" horiz-adv-x="465" 
d="M110 142v250h177v-250h-177zM287 535h-139q-23 0 -40 -8.5t-35 -27t-26.5 -34.5t-8.5 -38v-320q0 -21 9 -37t27 -34t34 -27t38 -9h142q16 0 29.5 15t18 21.5t7.5 17.5q3 -12 8 -19.5t14 -16.5t16 -13.5t16 -4.5h34v142h-71l2 500h72v143h-35q-9 0 -15 -3.5t-15 -12.5
t-15 -17.5t-9 -20.5q-3 11 -7.5 17.5t-18 21.5t-29.5 15h-35v-143h32v-107z" />
    <glyph glyph-name="e" unicode="e" horiz-adv-x="380" 
d="M107 214v-72h213v36h36v-81q0 -18 -6 -32t-26 -35.5t-36.5 -30.5t-38.5 -9h-106q-22 0 -37 8t-35 27t-28.5 33.5t-8.5 37.5v341q0 22 9 38t27.5 33.5t35 27t36.5 9.5h106q22 0 38 -9t33.5 -27.5t26.5 -34.5t9 -37v-160q0 -14 -9.5 -24l-18 -18.5t-17.5 -14.5t-22 -6h-181
zM107 321h177v71h-177v-71z" />
    <glyph glyph-name="f" unicode="f" horiz-adv-x="390" 
d="M182 392h66v144h-71v106h179v143h-139q-23 0 -40 -8.5t-35 -27t-26.5 -34.5t-8.5 -38l2 -535h-71v-142h58q9 0 15 3.5t15 12.5t15 17.5t9 20.5q3 -11 7.5 -17.5t18 -21.5t29.5 -15h52v142h-75v250z" />
    <glyph glyph-name="g" unicode="g" horiz-adv-x="515" 
d="M143 307h177v105h-177v-105zM107 -11h245v60h-245v-60zM392 462v-34v-139q0 -15 -7 -25.5t-21 -23.5t-26 -20t-28 -7h-45q-7 0 -13 -4t-21 -22t-18 -45h107q22 0 37.5 -8.5t34 -27t27.5 -34t9 -37.5v-39q0 -21 -9 -36.5t-26 -31.5t-34 -25t-40 -11h-175q-23 0 -38 8
t-34 26.5t-28.5 33.5t-9.5 36v34q0 23 9 40t26 34t34.5 26t37.5 12v72q-12 4 -20.5 10t-22.5 19t-21 22t-7 23v135q0 23 9 39.5t25.5 33t33 28t44.5 11.5h102q13 0 20.5 -3t30.5 -13q15 -10 30 -19q22 -4 44.5 9.5t17.5 33.5q-3 11 -13.5 20t-22.5 9v70h108v-72
q0 -25 -13.5 -40t-30 -30t-31.5 -23.5t-32 -14.5z" />
    <glyph glyph-name="h" unicode="h" horiz-adv-x="550" 
d="M369 392h-187v-250h75v-142h-52q-16 0 -29.5 15t-18 21.5t-7.5 17.5q-3 -12 -8 -19.5t-14 -16.5t-16 -13.5t-16 -4.5h-58v142h71l-2 500h-72v143h35q9 0 15 -3.5t15 -12.5t15 -17.5t9 -20.5q3 11 7.5 17.5t18 21.5t29.5 15h35v-143h-32v-107h149q23 0 40 -8.5t35 -27
t26.5 -34.5t8.5 -38l-1 -285h75v-142h-52q-16 0 -29.5 15t-18 21.5t-7.5 17.5q-3 -12 -8 -19.5t-14 -16.5t-16 -13.5t-16 -4.5h-58v142h71z" />
    <glyph glyph-name="i" unicode="i" horiz-adv-x="290" 
d="M85 683q-11 17 -28 17q17 0 27 14.5t10 29.5q9 0 13.5 2t16.5 9.5t15 24.5q0 -16 13.5 -25.5t30.5 -9.5q0 -16 10 -30t27 -17q-17 -3 -24 -12.5t-10 -16t-3 -13.5q-14 0 -28.5 -9.5t-14.5 -27.5q0 9 -4.5 15.5t-15.5 14t-26 7.5q0 15 -9 27zM182 142h75v-142h-52
q-16 0 -29.5 15t-18 21.5t-7.5 17.5q-3 -12 -8 -19.5t-14 -16.5t-16 -13.5t-16 -4.5h-58v142h69v250h-72v143h35q9 0 15 -3.5t15 -12.5t15 -17.5t9 -20.5q3 11 7.5 17.5t18 21.5t29.5 15h35v-143h-32v-250z" />
    <glyph glyph-name="j" unicode="j" horiz-adv-x="325" 
d="M145 678q-11 17 -28 17q17 0 27 14.5t10 29.5q9 0 13.5 2t16.5 9.5t15 24.5q0 -16 13.5 -25.5t30.5 -9.5q0 -16 10 -30t27 -17q-17 -3 -24 -12.5t-10 -16t-3 -13.5q-14 0 -28.5 -9.5t-14.5 -27.5q0 9 -4.5 15.5t-15.5 14t-26 7.5q0 15 -9 27zM178 392h-72v143h35
q9 0 15 -3.5t15 -12.5t15 -17.5t9 -20.5q3 11 7.5 17.5t18 21.5t29.5 15h35v-143h-32l-3 -347q0 -88 -30 -119t-85 -31q-43 0 -72 36t-29 83v57h37v-36h107v357z" />
    <glyph glyph-name="k" unicode="k" horiz-adv-x="636" 
d="M182 242v-100h75v-142h-52q-16 0 -29.5 15t-18 21.5t-7.5 17.5q-3 -12 -8 -19.5t-14 -16.5t-16 -13.5t-16 -4.5h-58v142h71v500h-74v143h35q9 0 15 -3.5t15 -12.5t15 -17.5t9 -20.5q3 11 7.5 17.5t18 21.5t29.5 15h35v-143h-32v-327l215 149h-42v143h35q9 0 15 -3.5
t15 -12.5t15 -17.5t9 -20.5q3 11 7.5 17.5t18 21.5t29.5 15h35v-143h-31l-146 -101l178 -221h71v-142h-52q-16 0 -29.5 15t-18 21.5t-7.5 17.5q-3 -12 -8 -19.5t-14 -16.5t-16 -13.5t-16 -4.5h-58v142h69l-149 186z" />
    <glyph glyph-name="l" unicode="l" horiz-adv-x="295" 
d="M182 142h75v-142h-52q-16 0 -29.5 15t-18 21.5t-7.5 17.5q-3 -12 -8 -19.5t-14 -16.5t-16 -13.5t-16 -4.5h-58v142h71l-2 500h-72v143h35q9 0 15 -3.5t15 -12.5t15 -17.5t9 -20.5q3 11 7.5 17.5t18 21.5t29.5 15h35v-143h-32v-500z" />
    <glyph glyph-name="m" unicode="m" horiz-adv-x="670" 
d="M147 142h67v-142h-38q-16 0 -29.5 15t-18 21.5t-7.5 17.5q-3 -12 -8 -19.5t-14 -16.5t-16 -13.5t-16 -4.5h-33v142h42l1 250h-42v148h106q9 0 15 -3.5t15 -12.5t15 -17.5t9 -20.5q3 11 7.5 17.5t18 21.5t29.5 15h69q9 0 15 -3.5t15 -12.5t15 -17.5t9 -20.5q3 11 7.5 17.5
t18 21.5t29.5 15h41q22 0 37.5 -8.5t34 -27t27.5 -34t9 -37.5v-291h67v-142h-38q-16 0 -29.5 15t-18 21.5t-7.5 17.5q-3 -12 -8 -19.5t-14 -16.5t-16 -13.5t-16 -4.5h-33v142h42v250h-144v-250h67v-142h-38q-16 0 -29.5 15t-18 21.5t-7.5 17.5q-3 -12 -8 -19.5t-14 -16.5
t-16 -13.5t-16 -4.5h-33v142h42l-1 250h-144z" />
    <glyph glyph-name="n" unicode="n" horiz-adv-x="505" 
d="M147 142h67v-142h-38q-16 0 -29.5 15t-18 21.5t-7.5 17.5q-3 -12 -8 -19.5t-14 -16.5t-16 -13.5t-16 -4.5h-33v142h42l1 250h-42v148h106q9 0 15 -3.5t15 -12.5t15 -17.5t9 -20.5q3 11 7.5 17.5t18 21.5t29.5 15h44q22 0 37.5 -8.5t34 -27t27.5 -34t9 -37.5v-291h67v-142
h-38q-16 0 -29.5 15t-18 21.5t-7.5 17.5q-3 -12 -8 -19.5t-14 -16.5t-16 -13.5t-16 -4.5h-33v142h42v250h-185z" />
    <glyph glyph-name="o" unicode="o" horiz-adv-x="385" 
d="M143 -10q-21 0 -37 9t-35.5 27.5t-28 33t-8.5 37.5v336q0 23 9 39.5t25.5 33t33 28t44.5 11.5h102q22 0 37.5 -8.5t34 -27t27.5 -34t9 -37.5v-341q0 -21 -9 -37t-33 -40t-65 -30h-106zM107 142h177v250h-177v-250z" />
    <glyph glyph-name="p" unicode="p" horiz-adv-x="465" 
d="M361 393v-144h-177v144h177zM184 144h139q23 0 40 8.5t35 27t26.5 34.5t8.5 38v181q0 21 -9 37.5t-28 34.5t-33.5 26.5t-37.5 8.5h-142q-17 0 -27 -12.5l-17.5 -22t-10.5 -19.5q-3 13 -8 20.5t-14.5 16t-16.5 13t-15 4.5h-34v-148h69v-357h-75v-143h51q28 0 40.5 14.5
t17.5 21t7 17.5q3 -11 9 -19.5t18.5 -21t31.5 -12.5h51v144h-76v108z" />
    <glyph glyph-name="q" unicode="q" horiz-adv-x="465" 
d="M107 393v-144h177v144h-177zM284 144h-139q-23 0 -40 8.5t-35 27t-26.5 34.5t-8.5 38v181q0 21 9 37.5t28 34.5t33.5 26.5t37.5 8.5h142q17 0 27 -12.5l17.5 -22t10.5 -19.5q3 13 8 20.5t14.5 16t16.5 13t15 4.5h34v-148h-69v-357h75v-143h-51q-28 0 -40.5 14.5t-17.5 21
t-7 17.5q-3 -11 -9 -19.5t-18.5 -21t-31.5 -12.5h-51v144h76v108z" />
    <glyph glyph-name="r" unicode="r" horiz-adv-x="495" 
d="M182 142h75v-142h-52q-16 0 -29.5 15t-18 21.5t-7.5 17.5q-3 -12 -8 -19.5t-14 -16.5t-16 -13.5t-16 -4.5h-58v142h69v250h-72v143h54q9 0 15 -3.5t15 -12.5t15 -17.5t9 -20.5q3 11 7.5 17.5t18 21.5t29.5 15h52v-71q29 36 69 53.5t87 17.5h58v-143h-282v-250z" />
    <glyph glyph-name="s" unicode="s" horiz-adv-x="420" 
d="M385 256q0 26 -18 45.5t-47 19.5h-198v71h212v-36h36v180q-13 -3 -18.5 -5.5t-16 -14t-15 -17.5t-7.5 -18q-3 12 -8 19.5t-14 16.5t-16 13.5t-16 4.5h-102q-22 0 -36.5 -8.5t-34 -27t-28.5 -34.5t-9 -38v-106q0 -11 2.5 -15.5t22 -25t26 -26t19.5 -5.5h195v-105h-243v70
h-36v-214q13 3 19 6t13 11t14.5 18t10.5 20q3 -13 8 -20.5t14.5 -16t16.5 -13t15 -4.5h132q21 0 37 9t34 27t27 34t9 38v147z" />
    <glyph glyph-name="t" unicode="t" horiz-adv-x="382" 
d="M172 570v142h-70v-142h-67v-143h67v-282q0 -66 36.5 -109t110.5 -43q45 0 74 38t29 87v59h-37v-38h-141v288h72v143h-74z" />
    <glyph glyph-name="u" unicode="u" horiz-adv-x="505" 
d="M356 394h-67v142h38q14 0 28 -14t19 -20.5t8 -19.5q3 10 8.5 18.5t17.5 22t28 13.5h33v-142h-42v-250h42v-142h-106q-9 0 -13.5 2.5t-14.5 11.5t-16.5 18.5t-9.5 21.5q-3 -12 -12 -22.5l-17.5 -21t-25.5 -10.5h-44q-22 0 -37 8t-34 26t-28 34t-9 38l-1 285h-66v142h37
q14 0 28 -14t19 -20.5t8 -19.5q3 10 8.5 18.5t14.5 18.5t15.5 14t15.5 4h33v-142h-42l1 -250h185z" />
    <glyph glyph-name="v" unicode="v" horiz-adv-x="531" 
d="M378 393h-60v142h42q14 0 24 -16q14 -19 16.5 -23.5t3.5 -14.5q1 11 6 19t12 17.5t12.5 13.5t12.5 4h47v-142h-55l-143 -251h60v-142h-41q-14 0 -24 16q-14 19 -16.5 23.5t-3.5 14.5q-1 -11 -4.5 -17.5t-12.5 -17.5t-14.5 -15t-12.5 -4h-46v142h55l-137 251h-60v142h42
q14 0 24 -16q14 -19 16.5 -23.5t3.5 -14.5q1 11 6 19t12 17.5t12.5 13.5t12.5 4h46v-142h-55l106 -202z" />
    <glyph glyph-name="w" unicode="w" horiz-adv-x="745" 
d="M370 335l-84 -193h60v-142h-41q-14 0 -24 16q-14 19 -16.5 23.5t-3.5 14.5q-1 -11 -4.5 -17.5t-12.5 -17.5t-14.5 -15t-12.5 -4h-46v142h55l-127 251h-60v142h42q14 0 24 -16q14 -19 16.5 -23.5t3.5 -14.5q1 11 6 19t12 17.5t12.5 13.5t12.5 4h46v-142h-55l99 -198
l87 198h-60v142h42q14 0 24 -16q14 -19 16.5 -23.5t3.5 -14.5q1 11 6 19t12 17.5t12.5 13.5t12.5 4h47v-142h-55l77 -198l113 198h-60v142h42q14 0 24 -16q14 -19 16.5 -23.5t3.5 -14.5q1 11 6 19t12 17.5t12.5 13.5t12.5 4h47v-142h-55l-146 -251h60v-142h-41q-14 0 -24 16
q-14 19 -16.5 23.5t-3.5 14.5q-1 -11 -4.5 -17.5t-12.5 -17.5t-14.5 -15t-12.5 -4h-46v142h55z" />
    <glyph glyph-name="x" unicode="x" horiz-adv-x="495" 
d="M99 393h-60v142h42q14 0 24 -16q14 -19 16.5 -23.5t3.5 -14.5q1 11 6 19t12 17.5t12.5 13.5t12.5 4h46v-142h-55l242 -251h60v-142h-41q-14 0 -24 16q-14 19 -16.5 23.5t-3.5 14.5q-1 -11 -4.5 -17.5t-12.5 -17.5t-14.5 -15t-12.5 -4h-46v142h55zM345 393h-60v142h42
q14 0 24 -16q14 -19 16.5 -23.5t3.5 -14.5q1 11 6 19t12 17.5t12.5 13.5t12.5 4h47v-142h-55l-255 -251h60v-142h-41q-14 0 -24 16q-14 19 -16.5 23.5t-3.5 14.5q-1 -11 -4.5 -17.5t-12.5 -17.5t-14.5 -15t-12.5 -4h-46v142h55z" />
    <glyph glyph-name="y" unicode="y" horiz-adv-x="525" 
d="M378 393h-60v142h42q14 0 24 -16q14 -19 16.5 -23.5t3.5 -14.5q1 11 6 19t12 17.5t12.5 13.5t12.5 4h47v-142h-55l-175 -381l-52 -120h-41q-14 0 -24 16q-14 19 -16.5 23.5t-3.5 14.5q-1 -11 -4.5 -17.5t-12.5 -17.5t-14.5 -15t-12.5 -4h-46v143h177l49 105l-164 253h-60
v142h42q14 0 24 -16q14 -19 16.5 -23.5t3.5 -14.5q1 11 6 19t12 17.5t12.5 13.5t12.5 4h46v-142h-55l129 -196z" />
    <glyph glyph-name="z" unicode="z" horiz-adv-x="420" 
d="M181 0q-12 4 -18.5 7t-15.5 13t-13.5 16.5t-7.5 17.5q-3 -12 -8 -19.5t-14 -16.5t-16 -13.5t-16 -4.5h-38v122l270 270h-233v-35h-37v179q19 -5 29.5 -15.5t16.5 -19t9 -20.5q3 11 7.5 17.5t18 21.5t29.5 15l104 1q9 0 15 -3.5t15 -12.5t15 -17.5t9 -20.5q3 11 7.5 17.5
t17.5 21t30 14.5h35v-126l-267 -267h231v36h36v-178q-12 3 -17.5 6t-15.5 13.5t-14.5 17t-7.5 17.5q-3 -12 -8 -19.5t-13 -15.5t-18 -12.5t-15 -6.5h-102z" />
    <glyph glyph-name="braceleft" unicode="{" horiz-adv-x="315" 
d="M195 50q0 -34 18.5 -77.5t66.5 -72.5q-8 -1 -22 -1q-66 0 -99 36t-43.5 59t-10.5 51l2 256q0 17 -3 30.5t-19 36t-50 22.5q35 4 53.5 31t18.5 59l-2 265q0 29 9.5 50.5t42.5 58.5t102 37q14 0 21 -1q-48 -29 -66.5 -72.5t-18.5 -77.5l2 -258q0 -28 -18.5 -55t-52.5 -36
q34 -4 52.5 -30t18.5 -58z" />
    <glyph glyph-name="bar" unicode="|" horiz-adv-x="140" 
d="M35 -105v1000h70v-1000h-70z" />
    <glyph glyph-name="braceright" unicode="}" horiz-adv-x="315" 
d="M120 50q0 -34 -18.5 -77.5t-66.5 -72.5q8 -1 22 -1q66 0 99 36t43.5 59t10.5 51l-2 256q0 17 3 30.5t19 36t50 22.5q-35 4 -53.5 31t-18.5 59l2 265q0 29 -9.5 50.5t-42.5 58.5t-102 37q-14 0 -21 -1q48 -29 66.5 -72.5t18.5 -77.5l-2 -258q0 -28 18.5 -55t52.5 -36
q-34 -4 -52.5 -30t-18.5 -58z" />
    <glyph glyph-name="asciitilde" unicode="~" horiz-adv-x="450" 
d="M49 266v39l112 112h38l91 -92l94 94h38v-37l-114 -114h-36l-92 92l-91 -94h-40z" />
    <glyph glyph-name="Adieresis" unicode="&#xc4;" horiz-adv-x="750" 
d="M214 178h72v-178h-71q-9 0 -15 3.5t-15 12.5t-15 17.5t-9 20.5q-3 -11 -7.5 -17.5t-18 -21.5t-29.5 -15h-71v178h71l19 59q3 8 3 15q0 10 -6.5 23.5t-16 31.5t-35.5 32q20 15 25.5 20l44.5 42q30 26 47 43t26 41l44 122h-44v178h107q16 0 29.5 -15t18 -21t7.5 -18
q3 12 8 19.5t14 16.5t16 13.5t16 4.5h106v-178h-42l42 -123q16 -47 52 -86.5t91 -59.5q-9 -10 -17 -21t-12 -19t-16.5 -25t-12.5 -29l2 -11l21 -55h72v-178h-71q-9 0 -15 3.5t-15 12.5t-15 17.5t-9 20.5q-3 -11 -7.5 -17.5t-18 -21.5t-29.5 -15h-71v178h71l-39 107h-242z
M294 393l162 -1l-80 215zM215 883q-11 17 -28 17q17 0 27 14.5t10 29.5q9 0 13.5 2t16.5 9.5t15 24.5q0 -16 13.5 -25.5t30.5 -9.5q0 -16 10 -30t27 -17q-17 -3 -24 -12.5t-10 -16t-3 -13.5q-14 0 -28.5 -9.5t-14.5 -27.5q0 9 -4.5 15.5t-15.5 14t-26 7.5q0 15 -9 27z
M420 883q-11 17 -28 17q17 0 27 14.5t10 29.5q9 0 13.5 2t16.5 9.5t15 24.5q0 -16 13.5 -25.5t30.5 -9.5q0 -16 10 -30t27 -17q-17 -3 -24 -12.5t-10 -16t-3 -13.5q-14 0 -28.5 -9.5t-14.5 -27.5q0 9 -4.5 15.5t-15.5 14t-26 7.5q0 15 -9 27z" />
    <glyph glyph-name="Aring" unicode="&#xc5;" horiz-adv-x="750" 
d="M214 178h72v-178h-71q-9 0 -15 3.5t-15 12.5t-15 17.5t-9 20.5q-3 -11 -7.5 -17.5t-18 -21.5t-29.5 -15h-71v178h71l19 59q3 8 3 15q0 10 -6.5 23.5t-16 31.5t-35.5 32q20 15 25.5 20l44.5 42q30 26 47 43t26 41l44 122h-44v178h107q16 0 29.5 -15t18 -21t7.5 -18
q3 12 8 19.5t14 16.5t16 13.5t16 4.5h106v-178h-42l42 -123q16 -47 52 -86.5t91 -59.5q-9 -10 -17 -21t-12 -19t-16.5 -25t-12.5 -29l2 -11l21 -55h72v-178h-71q-9 0 -15 3.5t-15 12.5t-15 17.5t-9 20.5q-3 -11 -7.5 -17.5t-18 -21.5t-29.5 -15h-71v178h71l-39 107h-242z
M294 393l162 -1l-80 215zM289 860q0 -12 7 -18t13 -10.5t13 -4.5h101q12 0 22.5 12.5t10.5 21.5v30q0 7 -3 13t-12 13t-17 7h-102q-14 0 -23.5 -11.5t-9.5 -21.5v-31zM336 849v53h75v-53h-75z" />
    <glyph glyph-name="Ccedilla" unicode="&#xc7;" horiz-adv-x="565" 
d="M391 0q16 0 29.5 15t18 21.5t7.5 17.5q3 -12 8 -19.5t14 -16.5t16 -13.5t16 -4.5h34v249h-71v-71h-249v143q0 32 18.5 58t52.5 30q-34 9 -52.5 36t-18.5 55v106h248v-71h73v250h-35q-9 0 -15 -3.5t-15 -12.5t-15 -17.5t-9 -20.5q-4 12 -8 17.5t-18 21.5t-29 16h-175
q-23 0 -40 -8.5t-35 -27t-26.5 -34.5t-8.5 -38v-178q0 -17 -3 -29.5t-18.5 -34.5t-50.5 -26q34 0 49.5 -22.5t19 -35.5t3.5 -31v-214q0 -21 9 -37t27 -34t34 -27t38 -9h46v-105l85 105h46z" />
    <glyph glyph-name="Eacute" unicode="&#xc9;" horiz-adv-x="570" 
d="M534 0v249h-71v-71h-213v179h106v-36h72v35q0 17 -12.5 27l-21 17t-20.5 10q12 3 20.5 9t16.5 15t12.5 16t4.5 15v34h-72v-35h-107v143h214v-72h72v250h-35q-9 0 -15 -3.5t-15 -12.5t-15 -17.5t-9 -20.5q-3 11 -7.5 17.5t-18 21.5t-29.5 15h-141q-9 0 -15 -3.5t-15 -12.5
t-15 -17.5t-9 -20.5q-3 11 -7.5 17.5t-18 21.5t-29.5 15h-106v-178h106v-107q0 -20 -2.5 -30t-17 -33t-51.5 -27q34 0 49.5 -22.5t19 -35.5t3.5 -31l-1 -143h-107v-178h107q16 0 29.5 15t18 21.5t7.5 17.5q3 -12 8 -19.5t14 -16.5t16 -13.5t16 -4.5h141q16 0 29.5 15
t18 21.5t7.5 17.5q3 -12 8 -19.5t14 -16.5t16 -13.5t16 -4.5h34zM423 1038h-54l-160 -159v-55h56l158 160v54z" />
    <glyph glyph-name="Ntilde" unicode="&#xd1;" horiz-adv-x="750" 
d="M106 178h-71v-178h71q16 0 29.5 15t18 21.5t7.5 17.5q3 -12 8 -19.5t14 -16.5t16 -13.5t16 -4.5h71v178h-72v473l285 -580v-71h35q16 0 29.5 15t18 21.5t7.5 17.5q3 -12 8 -19.5t14 -16.5t16 -13.5t16 -4.5h71v178h-71v143q0 20 2.5 31.5t18.5 34.5t50 23q-35 4 -53.5 31
t-18.5 59v42q0 25 23 45t49 20v178h-70q-9 0 -15 -3.5t-15 -12.5t-15 -17.5t-9 -20.5q-3 11 -7.5 17.5t-18 21.5t-29.5 15h-71v-178h71v-387l-286 565h-35q-9 0 -15 -3.5t-15 -12.5t-15 -17.5t-9 -20.5q-3 11 -7.5 17.5t-18 21.5t-29.5 15h-71v-178h72v-108q0 -20 -2.5 -30
t-17 -33t-51.5 -27q34 0 49.5 -22.5t18.5 -36.5t3 -30v-142zM184 826v39l112 112h38l91 -92l94 94h38v-37l-114 -114h-36l-92 92l-91 -94h-40z" />
    <glyph glyph-name="Odieresis" unicode="&#xd6;" 
d="M214 -15q-22 0 -37.5 8.5t-34 27t-27.5 34t-9 37.5v229q0 17 -3 30.5t-19 36t-50 22.5q35 4 53.5 31t18.5 59v193q0 22 8 37t26 33.5t35.5 28t40.5 9.5h211q22 0 36.5 -8.5t34 -27t28.5 -34.5t9 -38v-193q0 -28 18 -55t52 -36q-34 -4 -52.5 -30t-18.5 -58v-229
q0 -21 -9 -37t-33 -40t-65 -30h-213zM214 502q0 -28 18.5 -55t52.5 -36q-34 -4 -52.5 -30t-18.5 -58l-1 -145h214v143q0 17 -3 30.5t-19 36t-50 22.5q35 4 53.5 31t18.5 59v107h-213v-105zM160 883q-11 17 -28 17q17 0 27 14.5t10 29.5q9 0 13.5 2t16.5 9.5t15 24.5
q0 -16 13.5 -25.5t30.5 -9.5q0 -16 10 -30t27 -17q-17 -3 -24 -12.5t-10 -16t-3 -13.5q-14 0 -28.5 -9.5t-14.5 -27.5q0 9 -4.5 15.5t-15.5 14t-26 7.5q0 15 -9 27zM365 883q-11 17 -28 17q17 0 27 14.5t10 29.5q9 0 13.5 2t16.5 9.5t15 24.5q0 -16 13.5 -25.5t30.5 -9.5
q0 -16 10 -30t27 -17q-17 -3 -24 -12.5t-10 -16t-3 -13.5q-14 0 -28.5 -9.5t-14.5 -27.5q0 9 -4.5 15.5t-15.5 14t-26 7.5q0 15 -9 27z" />
    <glyph glyph-name="Udieresis" unicode="&#xdc;" horiz-adv-x="635" 
d="M535 500q0 -28 18 -55t52 -36q-34 -4 -52.5 -30t-18.5 -58v-214q0 -21 -9 -37t-33 -40t-65 -30h-213q-22 0 -37.5 8.5t-34 27t-27.5 34t-9 37.5v214q0 17 -3 30.5t-19 36t-50 22.5q35 4 53.5 31t18.5 59l-1 107h-71v178h71q16 0 29.5 -15t18 -21t7.5 -18q3 12 8 19.5
t14 16.5t16 13.5t16 4.5h71v-178h-72l1 -105q0 -28 18.5 -55t52.5 -36q-34 -4 -52.5 -30t-18.5 -58l-1 -145h214v143q0 17 -3 30.5t-19 36t-50 22.5q35 4 53.5 31t18.5 59l1 107h-71v178h71q16 0 29.5 -15t18 -21t7.5 -18q3 12 8 19.5t14 16.5t16 13.5t16 4.5h71v-178h-77z
M160 883q-11 17 -28 17q17 0 27 14.5t10 29.5q9 0 13.5 2t16.5 9.5t15 24.5q0 -16 13.5 -25.5t30.5 -9.5q0 -16 10 -30t27 -17q-17 -3 -24 -12.5t-10 -16t-3 -13.5q-14 0 -28.5 -9.5t-14.5 -27.5q0 9 -4.5 15.5t-15.5 14t-26 7.5q0 15 -9 27zM365 883q-11 17 -28 17
q17 0 27 14.5t10 29.5q9 0 13.5 2t16.5 9.5t15 24.5q0 -16 13.5 -25.5t30.5 -9.5q0 -16 10 -30t27 -17q-17 -3 -24 -12.5t-10 -16t-3 -13.5q-14 0 -28.5 -9.5t-14.5 -27.5q0 9 -4.5 15.5t-15.5 14t-26 7.5q0 15 -9 27z" />
    <glyph glyph-name="aacute" unicode="&#xe1;" horiz-adv-x="450" 
d="M35 213q0 22 8 37t26 33.5t35.5 28t40.5 9.5h139v71h-214v-71h-36v225q13 -3 18.5 -5.5t16 -14t15 -17.5t7.5 -18q3 12 8 19.5t14 16.5t16 13.5t16 4.5h105q22 0 36.5 -8.5t34 -27t28.5 -34.5t9 -38l-1 -295h71v-152h-34q-9 0 -15 3.5t-15 12.5t-15 17.5t-9 20.5
q-3 -11 -7.5 -17.5t-18 -21.5t-29.5 -15h-142q-22 0 -37.5 8.5t-34 27t-27.5 34t-9 37.5v116zM284 142v107h-177v-107h177zM313 784l-158 -160h-56v55l160 159h54v-54z" />
    <glyph glyph-name="agrave" unicode="&#xe0;" horiz-adv-x="450" 
d="M35 213q0 22 8 37t26 33.5t35.5 28t40.5 9.5h139v71h-214v-71h-36v225q13 -3 18.5 -5.5t16 -14t15 -17.5t7.5 -18q3 12 8 19.5t14 16.5t16 13.5t16 4.5h105q22 0 36.5 -8.5t34 -27t28.5 -34.5t9 -38l-1 -295h71v-152h-34q-9 0 -15 3.5t-15 12.5t-15 17.5t-9 20.5
q-3 -11 -7.5 -17.5t-18 -21.5t-29.5 -15h-142q-22 0 -37.5 8.5t-34 27t-27.5 34t-9 37.5v116zM284 142v107h-177v-107h177zM303 626h-54l-160 159v55h56l158 -160v-54z" />
    <glyph glyph-name="acircumflex" unicode="&#xe2;" horiz-adv-x="450" 
d="M35 213q0 22 8 37t26 33.5t35.5 28t40.5 9.5h139v71h-214v-71h-36v225q13 -3 18.5 -5.5t16 -14t15 -17.5t7.5 -18q3 12 8 19.5t14 16.5t16 13.5t16 4.5h105q22 0 36.5 -8.5t34 -27t28.5 -34.5t9 -38l-1 -295h71v-152h-34q-9 0 -15 3.5t-15 12.5t-15 17.5t-9 20.5
q-3 -11 -7.5 -17.5t-18 -21.5t-29.5 -15h-142q-22 0 -37.5 8.5t-34 27t-27.5 34t-9 37.5v116zM284 142v107h-177v-107h177zM393 626h-54l-160 159v55h56l158 -160v-54zM233 784l-158 -160h-56v55l160 159h54v-54z" />
    <glyph glyph-name="adieresis" unicode="&#xe4;" horiz-adv-x="450" 
d="M35 213q0 22 8 37t26 33.5t35.5 28t40.5 9.5h139v71h-214v-71h-36v225q13 -3 18.5 -5.5t16 -14t15 -17.5t7.5 -18q3 12 8 19.5t14 16.5t16 13.5t16 4.5h105q22 0 36.5 -8.5t34 -27t28.5 -34.5t9 -38l-1 -295h71v-152h-34q-9 0 -15 3.5t-15 12.5t-15 17.5t-9 20.5
q-3 -11 -7.5 -17.5t-18 -21.5t-29.5 -15h-142q-22 0 -37.5 8.5t-34 27t-27.5 34t-9 37.5v116zM284 142v107h-177v-107h177zM40 673q-11 17 -28 17q17 0 27 14.5t10 29.5q9 0 13.5 2t16.5 9.5t15 24.5q0 -16 13.5 -25.5t30.5 -9.5q0 -16 10 -30t27 -17q-17 -3 -24 -12.5
t-10 -16t-3 -13.5q-14 0 -28.5 -9.5t-14.5 -27.5q0 9 -4.5 15.5t-15.5 14t-26 7.5q0 15 -9 27zM245 673q-11 17 -28 17q17 0 27 14.5t10 29.5q9 0 13.5 2t16.5 9.5t15 24.5q0 -16 13.5 -25.5t30.5 -9.5q0 -16 10 -30t27 -17q-17 -3 -24 -12.5t-10 -16t-3 -13.5
q-14 0 -28.5 -9.5t-14.5 -27.5q0 9 -4.5 15.5t-15.5 14t-26 7.5q0 15 -9 27z" />
    <glyph glyph-name="atilde" unicode="&#xe3;" horiz-adv-x="450" 
d="M35 213q0 22 8 37t26 33.5t35.5 28t40.5 9.5h139v71h-214v-71h-36v225q13 -3 18.5 -5.5t16 -14t15 -17.5t7.5 -18q3 12 8 19.5t14 16.5t16 13.5t16 4.5h105q22 0 36.5 -8.5t34 -27t28.5 -34.5t9 -38l-1 -295h71v-152h-34q-9 0 -15 3.5t-15 12.5t-15 17.5t-9 20.5
q-3 -11 -7.5 -17.5t-18 -21.5t-29.5 -15h-142q-22 0 -37.5 8.5t-34 27t-27.5 34t-9 37.5v116zM284 142v107h-177v-107h177zM19 611v39l112 112h38l91 -92l94 94h38v-37l-114 -114h-36l-92 92l-91 -94h-40z" />
    <glyph glyph-name="aring" unicode="&#xe5;" horiz-adv-x="450" 
d="M35 213q0 22 8 37t26 33.5t35.5 28t40.5 9.5h139v71h-214v-71h-36v225q13 -3 18.5 -5.5t16 -14t15 -17.5t7.5 -18q3 12 8 19.5t14 16.5t16 13.5t16 4.5h105q22 0 36.5 -8.5t34 -27t28.5 -34.5t9 -38l-1 -295h71v-152h-34q-9 0 -15 3.5t-15 12.5t-15 17.5t-9 20.5
q-3 -11 -7.5 -17.5t-18 -21.5t-29.5 -15h-142q-22 0 -37.5 8.5t-34 27t-27.5 34t-9 37.5v116zM284 142v107h-177v-107h177zM119 655q0 -12 7 -18t13 -10.5t13 -4.5h101q12 0 22.5 12.5t10.5 21.5v30q0 7 -3 13t-12 13t-17 7h-102q-14 0 -23.5 -11.5t-9.5 -21.5v-31zM166 644
v53h75v-53h-75z" />
    <glyph glyph-name="ccedilla" unicode="&#xe7;" horiz-adv-x="385" 
d="M351 214h-36v-72h-208v250h209v-71h36v225q-13 -3 -18.5 -5.5t-16 -14t-15 -17.5t-7.5 -18q-3 12 -8 19.5t-14 16.5t-16 13.5t-16 4.5h-99q-22 0 -36.5 -8.5t-34 -27t-28.5 -34.5t-9 -38v-341q0 -22 9 -37.5t27.5 -33.5t34.5 -26.5t38 -8.5h13v-98l75 98h13q23 0 38 8
t33 27t27 35t9 37v117z" />
    <glyph glyph-name="eacute" unicode="&#xe9;" horiz-adv-x="380" 
d="M107 214v-72h213v36h36v-81q0 -18 -6 -32t-26 -35.5t-36.5 -30.5t-38.5 -9h-106q-22 0 -37 8t-35 27t-28.5 33.5t-8.5 37.5v341q0 22 9 38t27.5 33.5t35 27t36.5 9.5h106q22 0 38 -9t33.5 -27.5t26.5 -34.5t9 -37v-160q0 -14 -9.5 -24l-18 -18.5t-17.5 -14.5t-22 -6h-181
zM107 321h177v71h-177v-71zM308 813h-54l-160 -159v-55h56l158 160v54z" />
    <glyph glyph-name="egrave" unicode="&#xe8;" horiz-adv-x="380" 
d="M107 214v-72h213v36h36v-81q0 -18 -6 -32t-26 -35.5t-36.5 -30.5t-38.5 -9h-106q-22 0 -37 8t-35 27t-28.5 33.5t-8.5 37.5v341q0 22 9 38t27.5 33.5t35 27t36.5 9.5h106q22 0 38 -9t33.5 -27.5t26.5 -34.5t9 -37v-160q0 -14 -9.5 -24l-18 -18.5t-17.5 -14.5t-22 -6h-181
zM107 321h177v71h-177v-71zM308 596h-54l-160 159v55h56l158 -160v-54z" />
    <glyph glyph-name="ecircumflex" unicode="&#xea;" horiz-adv-x="380" 
d="M107 214v-72h213v36h36v-81q0 -18 -6 -32t-26 -35.5t-36.5 -30.5t-38.5 -9h-106q-22 0 -37 8t-35 27t-28.5 33.5t-8.5 37.5v341q0 22 9 38t27.5 33.5t35 27t36.5 9.5h106q22 0 38 -9t33.5 -27.5t26.5 -34.5t9 -37v-160q0 -14 -9.5 -24l-18 -18.5t-17.5 -14.5t-22 -6h-181
zM107 321h177v71h-177v-71zM383 631h-54l-160 159v55h56l158 -160v-54zM223 789l-158 -160h-56v55l160 159h54v-54z" />
    <glyph glyph-name="edieresis" unicode="&#xeb;" horiz-adv-x="380" 
d="M107 214v-72h213v36h36v-81q0 -18 -6 -32t-26 -35.5t-36.5 -30.5t-38.5 -9h-106q-22 0 -37 8t-35 27t-28.5 33.5t-8.5 37.5v341q0 22 9 38t27.5 33.5t35 27t36.5 9.5h106q22 0 38 -9t33.5 -27.5t26.5 -34.5t9 -37v-160q0 -14 -9.5 -24l-18 -18.5t-17.5 -14.5t-22 -6h-181
zM107 321h177v71h-177v-71zM45 673q-11 17 -28 17q17 0 27 14.5t10 29.5q9 0 13.5 2t16.5 9.5t15 24.5q0 -16 13.5 -25.5t30.5 -9.5q0 -16 10 -30t27 -17q-17 -3 -24 -12.5t-10 -16t-3 -13.5q-14 0 -28.5 -9.5t-14.5 -27.5q0 9 -4.5 15.5t-15.5 14t-26 7.5q0 15 -9 27z
M250 673q-11 17 -28 17q17 0 27 14.5t10 29.5q9 0 13.5 2t16.5 9.5t15 24.5q0 -16 13.5 -25.5t30.5 -9.5q0 -16 10 -30t27 -17q-17 -3 -24 -12.5t-10 -16t-3 -13.5q-14 0 -28.5 -9.5t-14.5 -27.5q0 9 -4.5 15.5t-15.5 14t-26 7.5q0 15 -9 27z" />
    <glyph glyph-name="iacute" unicode="&#xed;" horiz-adv-x="290" 
d="M182 142h75v-142h-52q-16 0 -29.5 15t-18 21.5t-7.5 17.5q-3 -12 -8 -19.5t-14 -16.5t-16 -13.5t-16 -4.5h-58v142h69v250h-72v143h35q9 0 15 -3.5t15 -12.5t15 -17.5t9 -20.5q3 11 7.5 17.5t18 21.5t29.5 15h35v-143h-32v-250zM263 813h-54l-160 -159v-55h56l158 160v54
z" />
    <glyph glyph-name="igrave" unicode="&#xec;" horiz-adv-x="290" 
d="M182 142h75v-142h-52q-16 0 -29.5 15t-18 21.5t-7.5 17.5q-3 -12 -8 -19.5t-14 -16.5t-16 -13.5t-16 -4.5h-58v142h69v250h-72v143h35q9 0 15 -3.5t15 -12.5t15 -17.5t9 -20.5q3 11 7.5 17.5t18 21.5t29.5 15h35v-143h-32v-250zM263 601h-54l-160 159v55h56l158 -160v-54
z" />
    <glyph glyph-name="icircumflex" unicode="&#xee;" horiz-adv-x="290" 
d="M182 142h75v-142h-52q-16 0 -29.5 15t-18 21.5t-7.5 17.5q-3 -12 -8 -19.5t-14 -16.5t-16 -13.5t-16 -4.5h-58v142h69v250h-72v143h35q9 0 15 -3.5t15 -12.5t15 -17.5t9 -20.5q3 11 7.5 17.5t18 21.5t29.5 15h35v-143h-32v-250zM338 626h-54l-160 159v55h56l158 -160v-54
zM178 784l-158 -160h-56v55l160 159h54v-54z" />
    <glyph glyph-name="idieresis" unicode="&#xef;" horiz-adv-x="290" 
d="M182 142h75v-142h-52q-16 0 -29.5 15t-18 21.5t-7.5 17.5q-3 -12 -8 -19.5t-14 -16.5t-16 -13.5t-16 -4.5h-58v142h69v250h-72v143h35q9 0 15 -3.5t15 -12.5t15 -17.5t9 -20.5q3 11 7.5 17.5t18 21.5t29.5 15h35v-143h-32v-250zM-5 673q-11 17 -28 17q17 0 27 14.5
t10 29.5q9 0 13.5 2t16.5 9.5t15 24.5q0 -16 13.5 -25.5t30.5 -9.5q0 -16 10 -30t27 -17q-17 -3 -24 -12.5t-10 -16t-3 -13.5q-14 0 -28.5 -9.5t-14.5 -27.5q0 9 -4.5 15.5t-15.5 14t-26 7.5q0 15 -9 27zM200 673q-11 17 -28 17q17 0 27 14.5t10 29.5q9 0 13.5 2t16.5 9.5
t15 24.5q0 -16 13.5 -25.5t30.5 -9.5q0 -16 10 -30t27 -17q-17 -3 -24 -12.5t-10 -16t-3 -13.5q-14 0 -28.5 -9.5t-14.5 -27.5q0 9 -4.5 15.5t-15.5 14t-26 7.5q0 15 -9 27z" />
    <glyph glyph-name="ntilde" unicode="&#xf1;" horiz-adv-x="505" 
d="M147 142h67v-142h-38q-16 0 -29.5 15t-18 21.5t-7.5 17.5q-3 -12 -8 -19.5t-14 -16.5t-16 -13.5t-16 -4.5h-33v142h42l1 250h-42v148h106q9 0 15 -3.5t15 -12.5t15 -17.5t9 -20.5q3 11 7.5 17.5t18 21.5t29.5 15h44q22 0 37.5 -8.5t34 -27t27.5 -34t9 -37.5v-291h67v-142
h-38q-16 0 -29.5 15t-18 21.5t-7.5 17.5q-3 -12 -8 -19.5t-14 -16.5t-16 -13.5t-16 -4.5h-33v142h42v250h-185zM74 631v39l112 112h38l91 -92l94 94h38v-37l-114 -114h-36l-92 92l-91 -94h-40z" />
    <glyph glyph-name="oacute" unicode="&#xf3;" horiz-adv-x="385" 
d="M143 -10q-21 0 -37 9t-35.5 27.5t-28 33t-8.5 37.5v336q0 23 9 39.5t25.5 33t33 28t44.5 11.5h102q22 0 37.5 -8.5t34 -27t27.5 -34t9 -37.5v-341q0 -21 -9 -37t-33 -40t-65 -30h-106zM107 142h177v250h-177v-250zM308 813h-54l-160 -159v-55h56l158 160v54z" />
    <glyph glyph-name="ograve" unicode="&#xf2;" horiz-adv-x="385" 
d="M143 -10q-21 0 -37 9t-35.5 27.5t-28 33t-8.5 37.5v336q0 23 9 39.5t25.5 33t33 28t44.5 11.5h102q22 0 37.5 -8.5t34 -27t27.5 -34t9 -37.5v-341q0 -21 -9 -37t-33 -40t-65 -30h-106zM107 142h177v250h-177v-250zM308 596h-54l-160 159v55h56l158 -160v-54z" />
    <glyph glyph-name="ocircumflex" unicode="&#xf4;" horiz-adv-x="385" 
d="M143 -10q-21 0 -37 9t-35.5 27.5t-28 33t-8.5 37.5v336q0 23 9 39.5t25.5 33t33 28t44.5 11.5h102q22 0 37.5 -8.5t34 -27t27.5 -34t9 -37.5v-341q0 -21 -9 -37t-33 -40t-65 -30h-106zM107 142h177v250h-177v-250zM383 636h-54l-160 159v55h56l158 -160v-54zM223 794
l-158 -160h-56v55l160 159h54v-54z" />
    <glyph glyph-name="odieresis" unicode="&#xf6;" horiz-adv-x="385" 
d="M143 -10q-21 0 -37 9t-35.5 27.5t-28 33t-8.5 37.5v336q0 23 9 39.5t25.5 33t33 28t44.5 11.5h102q22 0 37.5 -8.5t34 -27t27.5 -34t9 -37.5v-341q0 -21 -9 -37t-33 -40t-65 -30h-106zM107 142h177v250h-177v-250zM45 673q-11 17 -28 17q17 0 27 14.5t10 29.5q9 0 13.5 2
t16.5 9.5t15 24.5q0 -16 13.5 -25.5t30.5 -9.5q0 -16 10 -30t27 -17q-17 -3 -24 -12.5t-10 -16t-3 -13.5q-14 0 -28.5 -9.5t-14.5 -27.5q0 9 -4.5 15.5t-15.5 14t-26 7.5q0 15 -9 27zM250 673q-11 17 -28 17q17 0 27 14.5t10 29.5q9 0 13.5 2t16.5 9.5t15 24.5
q0 -16 13.5 -25.5t30.5 -9.5q0 -16 10 -30t27 -17q-17 -3 -24 -12.5t-10 -16t-3 -13.5q-14 0 -28.5 -9.5t-14.5 -27.5q0 9 -4.5 15.5t-15.5 14t-26 7.5q0 15 -9 27z" />
    <glyph glyph-name="otilde" unicode="&#xf5;" horiz-adv-x="385" 
d="M143 -10q-21 0 -37 9t-35.5 27.5t-28 33t-8.5 37.5v336q0 23 9 39.5t25.5 33t33 28t44.5 11.5h102q22 0 37.5 -8.5t34 -27t27.5 -34t9 -37.5v-341q0 -21 -9 -37t-33 -40t-65 -30h-106zM107 142h177v250h-177v-250zM14 616v39l112 112h38l91 -92l94 94h38v-37l-114 -114
h-36l-92 92l-91 -94h-40z" />
    <glyph glyph-name="uacute" unicode="&#xfa;" horiz-adv-x="505" 
d="M356 394h-67v142h38q14 0 28 -14t19 -20.5t8 -19.5q3 10 8.5 18.5t17.5 22t28 13.5h33v-142h-42v-250h42v-142h-106q-9 0 -13.5 2.5t-14.5 11.5t-16.5 18.5t-9.5 21.5q-3 -12 -12 -22.5l-17.5 -21t-25.5 -10.5h-44q-22 0 -37 8t-34 26t-28 34t-9 38l-1 285h-66v142h37
q14 0 28 -14t19 -20.5t8 -19.5q3 10 8.5 18.5t14.5 18.5t15.5 14t15.5 4h33v-142h-42l1 -250h185zM378 813h-54l-160 -159v-55h56l158 160v54z" />
    <glyph glyph-name="ugrave" unicode="&#xf9;" horiz-adv-x="505" 
d="M356 394h-67v142h38q14 0 28 -14t19 -20.5t8 -19.5q3 10 8.5 18.5t17.5 22t28 13.5h33v-142h-42v-250h42v-142h-106q-9 0 -13.5 2.5t-14.5 11.5t-16.5 18.5t-9.5 21.5q-3 -12 -12 -22.5l-17.5 -21t-25.5 -10.5h-44q-22 0 -37 8t-34 26t-28 34t-9 38l-1 285h-66v142h37
q14 0 28 -14t19 -20.5t8 -19.5q3 10 8.5 18.5t14.5 18.5t15.5 14t15.5 4h33v-142h-42l1 -250h185zM388 596h-54l-160 159v55h56l158 -160v-54z" />
    <glyph glyph-name="ucircumflex" unicode="&#xfb;" horiz-adv-x="505" 
d="M356 394h-67v142h38q14 0 28 -14t19 -20.5t8 -19.5q3 10 8.5 18.5t17.5 22t28 13.5h33v-142h-42v-250h42v-142h-106q-9 0 -13.5 2.5t-14.5 11.5t-16.5 18.5t-9.5 21.5q-3 -12 -12 -22.5l-17.5 -21t-25.5 -10.5h-44q-22 0 -37 8t-34 26t-28 34t-9 38l-1 285h-66v142h37
q14 0 28 -14t19 -20.5t8 -19.5q3 10 8.5 18.5t14.5 18.5t15.5 14t15.5 4h33v-142h-42l1 -250h185zM443 626h-54l-160 159v55h56l158 -160v-54zM283 784l-158 -160h-56v55l160 159h54v-54z" />
    <glyph glyph-name="udieresis" unicode="&#xfc;" horiz-adv-x="505" 
d="M356 394h-67v142h38q14 0 28 -14t19 -20.5t8 -19.5q3 10 8.5 18.5t17.5 22t28 13.5h33v-142h-42v-250h42v-142h-106q-9 0 -13.5 2.5t-14.5 11.5t-16.5 18.5t-9.5 21.5q-3 -12 -12 -22.5l-17.5 -21t-25.5 -10.5h-44q-22 0 -37 8t-34 26t-28 34t-9 38l-1 285h-66v142h37
q14 0 28 -14t19 -20.5t8 -19.5q3 10 8.5 18.5t14.5 18.5t15.5 14t15.5 4h33v-142h-42l1 -250h185zM100 673q-11 17 -28 17q17 0 27 14.5t10 29.5q9 0 13.5 2t16.5 9.5t15 24.5q0 -16 13.5 -25.5t30.5 -9.5q0 -16 10 -30t27 -17q-17 -3 -24 -12.5t-10 -16t-3 -13.5
q-14 0 -28.5 -9.5t-14.5 -27.5q0 9 -4.5 15.5t-15.5 14t-26 7.5q0 15 -9 27zM305 673q-11 17 -28 17q17 0 27 14.5t10 29.5q9 0 13.5 2t16.5 9.5t15 24.5q0 -16 13.5 -25.5t30.5 -9.5q0 -16 10 -30t27 -17q-17 -3 -24 -12.5t-10 -16t-3 -13.5q-14 0 -28.5 -9.5t-14.5 -27.5
q0 9 -4.5 15.5t-15.5 14t-26 7.5q0 15 -9 27z" />
    <glyph glyph-name="dagger" unicode="&#x2020;" horiz-adv-x="640" 
d="M373 545q0 -17 3 -30.5t19 -36t50 -22.5q-35 -4 -50 -25.5t-17.5 -33t-4.5 -31.5l-54 -465l-54 463q-2 18 -5.5 29.5t-18.5 32.5t-47 29q35 4 53 30t18 58v329h108v-327zM156 658q-17 0 -30.5 -3t-36 -19t-22.5 -50l-1 251q4 -34 30 -52.5t58 -18.5h114v-108h-112z
M572 586q-4 35 -31 53.5t-59 18.5h-110v108h108q28 0 55 18.5t36 52.5z" />
    <glyph glyph-name="degree" unicode="&#xb0;" horiz-adv-x="450" 
d="M149 730q0 -12 7 -18t13 -10.5t13 -4.5h101q12 0 22.5 12.5t10.5 21.5v30q0 7 -3 13t-12 13t-17 7h-102q-14 0 -23.5 -11.5t-9.5 -21.5v-31zM196 719v53h75v-53h-75z" />
    <glyph glyph-name="cent" unicode="&#xa2;" horiz-adv-x="385" 
d="M351 97q0 -18 -6 -32t-26 -35.5t-36.5 -30.5t-38.5 -9h-101q-22 0 -37 8t-35 27t-28.5 33.5t-8.5 37.5v341q0 22 9 38t27.5 33.5t35 27t36.5 9.5h99q9 0 15 -3.5t15 -12.5t15 -17.5t9 -20.5q3 11 7.5 17.5t14 16.5t17.5 14.5t18 6.5v-225h-36v71h-209v-250h208v72h36
v-117zM155 -105v745h70v-745h-70z" />
    <glyph glyph-name="sterling" unicode="&#xa3;" horiz-adv-x="570" 
d="M305 450h75v-65h-75q-14 0 -23.5 -8.5t-16 -22.5t-11 -29t-4.5 -28v-119h213v71h71v-249h-34q-9 0 -15 3.5t-15 12.5t-15 17.5t-9 20.5q-3 -11 -7.5 -17.5t-18 -21.5t-29.5 -15h-141q-9 0 -15 3.5t-15 12.5t-15 17.5t-9 20.5q-3 -11 -7.5 -17.5t-18 -21.5t-29.5 -15h-107
v178h107l1 119q0 17 -3 30.5t-19 35.5t-46 22h-69v65h70q35 0 47.5 18.5t15.5 32t3 29.5v77h-106v178h106q16 0 29.5 -15t18 -21t7.5 -18q3 12 8 19.5t14 16.5t16 13.5t16 4.5h105v-178h-104v-77q0 -31 14.5 -55.5t39.5 -24.5z" />
    <glyph glyph-name="section" unicode="&#xa7;" horiz-adv-x="530" 
d="M485 471q0 26 -18 45.5t-47 19.5h-198v71h117v-36h36v180q-13 -3 -18.5 -5.5t-16 -14t-15 -17.5t-7.5 -18q-3 12 -8 19.5t-14 16.5t-16 13.5t-16 4.5h-7q-22 0 -36.5 -8.5t-34 -27t-28.5 -34.5t-9 -38v-106q0 -11 2.5 -15.5t22 -25t26 -26t19.5 -5.5h195v-105l-234 -79
l-3 -65l201 1q21 0 37 9t34 27t27 34t9 38v147zM46 278q0 -28 18.5 -46.5t46.5 -18.5h198v-71h-112v36h-36l1 -180q13 3 19 6t13 11t14.5 18t10.5 20q3 -13 8 -20.5t14.5 -16t16.5 -13t15 -4.5q22 0 38.5 9t35.5 28t27.5 33.5t8.5 37.5l-1 106q0 13 -8 24l-21.5 21t-17.5 18
q-11 9 -23 9h-195v105l229 84l3 65l-196 -6q-21 0 -37.5 -9t-34.5 -28t-26.5 -33.5t-8.5 -37.5v-147z" />
    <glyph glyph-name="bullet" unicode="&#x2022;" horiz-adv-x="680" 
d="M247 312q-22 29 -57 33q35 6 55 32.5t20 56.5q27 0 54 18.5t36 52.5q5 -33 30.5 -51.5t57.5 -18.5q0 -29 20.5 -57.5t52.5 -36.5q-32 -4 -48 -25t-20.5 -31.5t-4.5 -26.5q-31 0 -50.5 -13.5t-28 -27.5t-8.5 -33q-4 36 -31.5 55t-59.5 19q0 30 -18 54z" />
    <glyph glyph-name="paragraph" unicode="&#xb6;" horiz-adv-x="840" 
d="M110 630q0 -46 45.5 -73t159.5 -27h65v-75h-65q-113 0 -199 41t-86 129q0 93 104 139t236 46h429v-83h-77v-585h75v-142h-52q-16 0 -29.5 15t-18 21.5t-7.5 17.5q-3 -12 -8 -19.5t-14 -16.5t-16 -13.5t-16 -4.5h-58v142h71l-2 585h-190v-585h75v-142h-52q-16 0 -29.5 15
t-18 21.5t-7.5 17.5q-3 -12 -8 -19.5t-14 -16.5t-16 -13.5t-16 -4.5h-58v142h71l-2 585l-67 3q-74 0 -139.5 -27t-65.5 -73z" />
    <glyph glyph-name="germandbls" unicode="&#xdf;" horiz-adv-x="680" 
d="M225 677v-213h147h31q21 0 36.5 3.5t29 14t21.5 21.5t8 25v149h-273zM34 -108v106h107l1 323q0 17 -3 30.5t-19 36t-50 22.5q37 4 51 25.5t17 35t3 29.5v107l-1 68q0 20 9.5 39t24.5 34t34 26t42 11h213q16 0 31.5 -6.5t36.5 -26.5t30 -33t9 -30v-15q0 -14 4.5 -25
t18.5 -31.5t48 -29.5q-34 -4 -52.5 -30t-18.5 -58v-39q0 -12 -7.5 -27.5t-27.5 -23.5q18 -10 23.5 -20.5t9 -18t3.5 -13.5v-41q0 -14 4.5 -25t18.5 -31.5t48 -29.5q-34 -4 -52.5 -30t-18.5 -59v-35q0 -22 -9 -37.5t-28 -33.5q-14 -20 -21.5 -28t-17.5 -8h-60v180l63 -2v109
q0 15 -5.5 25t-17.5 22t-22 17.5t-25 5.5h-203v-465h-30q-9 0 -15 3.5t-15 12.5t-15 17.5t-9 20.5q-3 -11 -7.5 -17.5t-18 -21.5t-29.5 -15h-52z" />
    <glyph glyph-name="registered" unicode="&#xae;" horiz-adv-x="740" 
d="M423 509h-86v-71h86v71zM337 384v-89h35v-89h-35q-7 0 -13 6t-9.5 10.5t-4.5 10.5q-1 -5 -3.5 -9t-9.5 -11t-14 -7h-38l2 89h36v71q0 17 -8.5 31t-27.5 14q18 0 27 14t9 31v53h-36v89h36q7 0 12 -5.5l9.5 -10.5t5.5 -11q1 5 3.5 9t9.5 11t14 7h89q11 0 19 -4.5t18.5 -15
t13.5 -17.5t3 -16v-18q0 -17 9 -31t26 -14q-17 0 -24.5 -11.5t-9 -18l-3.5 -15l-3.5 -14.5t-9 -16.5t-22.5 -14.5q18 -8 26 -22.5t9 -18t1 -13.5v-43h36v-89h-89v126q0 10 -3 15t-13 15.5t-18.5 16t-18.5 5.5h-36zM214 -15q-22 0 -37.5 8.5t-34 27t-27.5 34t-9 37.5v229
q0 17 -3 30.5t-19 36t-50 22.5q35 4 53.5 31t18.5 59v193q0 22 8 37t26 33.5t35.5 28t40.5 9.5h316q22 0 36.5 -8.5t34 -27t28.5 -34.5t9 -38v-193q0 -28 18 -55t52 -36q-34 -4 -52.5 -30t-18.5 -58v-229q0 -21 -9 -37t-33 -40t-65 -30h-318zM500 67q31 4 51.5 24.5t27 32
t6.5 29.5l1 481q0 18 -7.5 30.5t-23 27.5t-27 21.5t-28.5 6.5h-253q-19 0 -32 -6.5t-27 -20.5t-21.5 -28t-7.5 -31v-481q0 -16 7 -29t20.5 -27.5t27.5 -22t31 -7.5h255z" />
    <glyph glyph-name="copyright" unicode="&#xa9;" horiz-adv-x="740" 
d="M408 198q7 0 13 6t10 11t5 10q1 -5 3.5 -9t9.5 -11t14 -7h17v125h-36v-36h-124v72q0 17 9.5 30.5t25.5 13.5q-16 3 -23 13.5t-9.5 17.5t-2.5 14v53h124v-35h36v125h-17q-7 0 -13 -6t-9.5 -10.5t-4.5 -10.5q-1 5 -4 9t-10 11t-14 7h-87q-22 0 -33 -12.5t-16.5 -20.5
t-5.5 -21v-89q0 -14 -9 -28t-27 -17q17 0 26.5 -14t9.5 -30v-107q0 -11 4.5 -19t13.5 -17t17 -13.5t19 -4.5h88zM214 -15q-22 0 -37.5 8.5t-34 27t-27.5 34t-9 37.5v229q0 17 -3 30.5t-19 36t-50 22.5q35 4 53.5 31t18.5 59v193q0 22 8 37t26 33.5t35.5 28t40.5 9.5h316
q22 0 36.5 -8.5t34 -27t28.5 -34.5t9 -38v-193q0 -28 18 -55t52 -36q-34 -4 -52.5 -30t-18.5 -58v-229q0 -21 -9 -37t-33 -40t-65 -30h-318zM500 67q31 4 51.5 24.5t27 32t6.5 29.5l1 481q0 18 -7.5 30.5t-23 27.5t-27 21.5t-28.5 6.5h-253q-19 0 -32 -6.5t-27 -20.5
t-21.5 -28t-7.5 -31v-481q0 -16 7 -29t20.5 -27.5t27.5 -22t31 -7.5h255z" />
    <glyph glyph-name="trademark" unicode="&#x2122;" horiz-adv-x="775" 
d="M189 615h53v-36h36v143h-18v-18h-71q-7 0 -13 -6t-9.5 -10.5t-4.5 -10.5q-1 5 -4 9t-10 11t-14 7h-70v18h-19v-143h36v36h54v-54q0 -16 -9 -30.5t-27 -14.5q19 0 27.5 -13.5t8.5 -30.5v-72h-36v-89h36q7 0 13 6t9.5 10.5t4.5 10.5q1 -5 3.5 -9t9.5 -11t14 -7h36v89h-36
v69q0 17 8.5 31t27.5 14q-18 0 -27 14t-9 31v56zM355 398h-35v-89h35q7 0 13 6t10 11t5 10q1 -5 3.5 -9t9.5 -11t14 -7h35v89h-36v214h35l55 -196h52l54 196h36v-214h-36v-89h36q7 0 13 6t9.5 10.5t4.5 10.5q1 -5 3.5 -9t9.5 -11t14 -7h36v89h-36v71q0 17 9 31t27 14
q-18 0 -27 14t-9 31v53h35v89h-34q-7 0 -13 -6t-9.5 -10.5t-4.5 -10.5q-1 5 -4 9t-10 11t-14 7h-54l-63 -224l-62 224h-53q-7 0 -13 -6t-9.5 -10.5t-4.5 -10.5q-1 5 -3.5 9t-9.5 11t-14 7h-36v-89h36v-54q0 -16 -6 -25t-13 -14.5t-16 -5.5q17 0 26 -13.5t9 -30.5v-71z" />
    <glyph glyph-name="acute" unicode="&#xb4;" horiz-adv-x="380" 
d="M308 813h-54l-160 -159v-55h56l158 160v54z" />
    <glyph glyph-name="dieresis" unicode="&#xa8;" horiz-adv-x="450" 
d="M75 673q-11 17 -28 17q17 0 27 14.5t10 29.5q9 0 13.5 2t16.5 9.5t15 24.5q0 -16 13.5 -25.5t30.5 -9.5q0 -16 10 -30t27 -17q-17 -3 -24 -12.5t-10 -16t-3 -13.5q-14 0 -28.5 -9.5t-14.5 -27.5q0 9 -4.5 15.5t-15.5 14t-26 7.5q0 15 -9 27zM280 673q-11 17 -28 17
q17 0 27 14.5t10 29.5q9 0 13.5 2t16.5 9.5t15 24.5q0 -16 13.5 -25.5t30.5 -9.5q0 -16 10 -30t27 -17q-17 -3 -24 -12.5t-10 -16t-3 -13.5q-14 0 -28.5 -9.5t-14.5 -27.5q0 9 -4.5 15.5t-15.5 14t-26 7.5q0 15 -9 27z" />
    <glyph glyph-name="notequal" unicode="&#x2260;" horiz-adv-x="495" 
d="M40 400v65h415v-65h-415zM40 255v65h415v-65h-415zM251 598l53 -9l-35 -198q-2 -16 5 -31t23 -19q-7 0 -15.5 -4t-17 -11.5t-10.5 -23.5l-36 -203l-53 9l36 205q2 17 -4.5 31t-23.5 19q17 0 29 10.5t14 27.5z" />
    <glyph glyph-name="AE" unicode="&#xc6;" horiz-adv-x="1000" 
d="M214 178h72v-178h-71q-9 0 -15 3.5t-15 12.5t-15 17.5t-9 20.5q-3 -11 -7.5 -17.5t-18 -21.5t-29.5 -15h-71v178h71l19 59q3 8 3 15q0 10 -6.5 23.5t-16 31.5t-35.5 32q20 15 25.5 20l44.5 42q30 26 47 43t26 41l44 122h-44v178h107q16 0 29.5 -15t18 -21t7.5 -18
q3 12 8 19.5t14 16.5t16 13.5t16 4.5h106v-178h-42l42 -123q16 -47 52 -86.5t91 -59.5q-9 -10 -17 -21t-12 -19t-16.5 -25t-12.5 -29l2 -11l21 -55h72v-178h-71q-9 0 -15 3.5t-15 12.5t-15 17.5t-9 20.5q-3 -11 -7.5 -17.5t-18 -21.5t-29.5 -15h-71v178h71l-39 107h-242z
M294 393l162 -1l-80 215zM930 0q-9 0 -15 3.5t-15 12.5t-15 17.5t-9 20.5q-3 -11 -7.5 -17.5t-18 -21.5t-29.5 -15h-141q-9 0 -15 3.5t-15 12.5t-15 17.5t-9 20.5q-3 -11 -7.5 -17.5t-18 -21.5t-29.5 -15h-107v178h107l1 143q0 17 -3 30.5t-19 36t-50 22.5q37 4 51 25.5
t17 35t3 29.5v107h-106v178h106q16 0 29.5 -15t18 -21t7.5 -18q3 12 8 19.5t14 16.5t16 13.5t16 4.5h141q16 0 29.5 -15t18 -21t7.5 -18q3 12 8 19.5t14 16.5t16 13.5t16 4.5h35v-250h-72v72h-214v-143h107v35h72v-34q0 -9 -2.5 -13.5t-12.5 -15.5t-18.5 -17t-20.5 -9
q11 -3 22 -11.5l21.5 -17t10.5 -25.5v-35h-72v36h-106v-179h213v71h71v-249h-34z" />
    <glyph glyph-name="Oslash" unicode="&#xd8;" 
d="M214 -15q-22 0 -37.5 8.5t-34 27t-27.5 34t-9 37.5v229q0 17 -3 30.5t-19 36t-50 22.5q35 4 53.5 31t18.5 59v193q0 22 8 37t26 33.5t35.5 28t40.5 9.5h211q22 0 36.5 -8.5t34 -27t28.5 -34.5t9 -38v-193q0 -28 18 -55t52 -36q-34 -4 -52.5 -30t-18.5 -58v-229
q0 -21 -9 -37t-33 -40t-65 -30h-213zM213 178h214v429h-213zM353 891l106 -18l-173 -981l-106 19z" />
    <glyph glyph-name="infinity" unicode="&#x221e;" horiz-adv-x="780" 
d="M123 285q-18 0 -34.5 7.5t-20.5 11.5t-4 10v62q0 11 -8.5 16t-15 7.5t-14.5 0.5q5 -1 12.5 0.5t16.5 7t9 16.5v52q0 7 4 10.5t21 11t35 7.5h171q10 0 15.5 -1t16.5 -6t19 -9t8 -13v-52q0 -10 6 -13.5l13.5 -7.5t17.5 -4q-8 1 -13.5 -0.5t-15 -7t-9.5 -15.5v-62
q0 -7 -5 -11.5t-20 -11t-33 -6.5h-172zM254 336q12 0 22 5.5t10 9.5v88q0 6 -11 9q-14 6 -21 6h-90q-8 0 -20 -4.5t-12 -10.5v-88q0 -7 11 -11t20 -4h91zM488 282q-18 0 -34.5 7.5t-20.5 11.5t-4 10v62q0 11 -8.5 16t-15 7.5t-14.5 0.5q5 -1 12.5 0.5t16.5 7t9 16.5v52
q0 7 4 10.5t21 11t35 7.5h171q10 0 15.5 -1t16.5 -6t19 -9t8 -13v-52q0 -10 6 -13.5l13.5 -7.5t17.5 -4q-8 1 -13.5 -0.5t-15 -7t-9.5 -15.5v-62q0 -7 -5 -11.5t-20 -11t-33 -6.5h-172zM619 333q12 0 22 5.5t10 9.5v88q0 6 -11 9q-14 6 -21 6h-90q-8 0 -20 -4.5t-12 -10.5
v-88q0 -7 11 -11t20 -4h91z" />
    <glyph glyph-name="plusminus" unicode="&#xb1;" horiz-adv-x="490" 
d="M205 185v180h-165v65h165v180h75v-180h170v-65h-170v-180h-75zM40 55v65h405v-65h-405z" />
    <glyph glyph-name="lessequal" unicode="&#x2264;" horiz-adv-x="490" 
d="M40 55v65h405v-65h-405zM391 173l-351 313l355 315h41v-39l-311 -276l311 -272v-41h-45z" />
    <glyph glyph-name="greaterequal" unicode="&#x2265;" horiz-adv-x="490" 
d="M40 55v65h405v-65h-405zM91 173l351 313l-355 315h-41v-39l311 -276l-311 -272v-41h45z" />
    <glyph glyph-name="yen" unicode="&#xa5;" horiz-adv-x="745" 
d="M481 427q-15 -11 -34.5 -29t-19.5 -38q0 -26 23 -44t51 -14q-38 -6 -55.5 -33.5t-17.5 -60.5v-30h71v-178h-71q-9 0 -15 3.5t-15 12.5t-15 17.5t-9 20.5q-3 -11 -7.5 -17.5t-18 -21.5t-29.5 -15h-71v178h72v35q0 17 -3 30.5t-19 36t-50 22.5q28 -3 52.5 15.5t20.5 44.5
q-2 13 -22 37.5t-27 29.5l-179 178h-59v178h71q16 0 29.5 -15t18 -21t7.5 -18q3 12 8 19.5t14 16.5t16 13.5t16 4.5h71v-178h-90l181 -187l177 187h-89v178h71q16 0 29.5 -15t18 -21t7.5 -18q3 12 8 19.5t14 16.5t16 13.5t16 4.5h71v-178h-57zM80 440v65h575v-65h-575z
M85 305v65h575v-65h-575z" />
    <glyph glyph-name="mu" unicode="&#xb5;" horiz-adv-x="585" 
d="M356 394h-67v142h38q14 0 28 -14t19 -20.5t8 -19.5q3 10 8.5 18.5t17.5 22t28 13.5h33v-142h-42v-250h132v-142h-196q-9 0 -13.5 2.5t-14.5 11.5t-16.5 18.5t-9.5 21.5q-3 -12 -12 -22.5l-17.5 -21t-25.5 -10.5h-84v-107l-68 -2l-1 500h-66v142h37q14 0 28 -14t19 -20.5
t8 -19.5q3 10 8.5 18.5t14.5 18.5t15.5 14t15.5 4h33v-142h-42l1 -250h185z" />
    <glyph glyph-name="partialdiff" unicode="&#x2202;" horiz-adv-x="385" 
d="M143 -10q-21 0 -37 9t-35.5 27.5t-28 33t-8.5 37.5v336q0 23 9 39.5t25.5 33t33 28t44.5 11.5h102q22 0 37.5 -8.5t34 -27t27.5 -34t9 -37.5v-341q0 -21 -9 -37t-33 -40t-65 -30h-106zM107 142h177v250h-177v-250zM284 437v250h-177v-70h-73v111q0 23 9 39.5t25.5 33
t33 28t44.5 11.5h102q22 0 37.5 -8.5t34 -27t27.5 -34t9 -37.5v-296h-72z" />
    <glyph glyph-name="summation" unicode="&#x3a3;" horiz-adv-x="570" 
d="M534 0v164h-71v-71h-273l165 279h106v-25h72v25q0 14 -16 21q-11 7 -20 12t-18 5q10 0 17 3.5t17.5 10.5t15 12t4.5 12v24h-72v-25h-107l-165 245h274v-72h72v165h-35q-9 0 -15 -3.5t-15 -12.5t-15 -17.5t-9 -20.5q-3 11 -7.5 17.5t-18 21.5t-29.5 15h-201q-9 0 -15 -3.5
t-15 -12.5t-15 -17.5t-9 -20.5q-3 11 -7.5 17.5t-18 21.5t-29.5 15h-46v-93h46l140 -192q5 -8 10 -19.5t5 -19.5q0 -9 -7 -20.5t-21.5 -21t-32.5 -9.5q17 2 31.5 -7.5t22.5 -20.5t8 -22q0 -8 -4 -17.5t-11 -21.5l-141 -228h-47v-93h47q16 0 29.5 15t18 21.5t7.5 17.5
q3 -12 8 -19.5t14 -16.5t16 -13.5t16 -4.5h201q16 0 29.5 15t18 21.5t7.5 17.5q3 -12 8 -19.5t14 -16.5t16 -13.5t16 -4.5h34z" />
    <glyph glyph-name="product" unicode="&#x220f;" horiz-adv-x="705" 
d="M182 727v-585h75v-142h-52q-16 0 -29.5 15t-18 21.5t-7.5 17.5q-3 -12 -8 -19.5t-14 -16.5t-16 -13.5t-16 -4.5h-58v142h71l-2 585h-72v143h634v-143h-77v-585h75v-142h-52q-16 0 -29.5 15t-18 21.5t-7.5 17.5q-3 -12 -8 -19.5t-14 -16.5t-16 -13.5t-16 -4.5h-58v142h71
l-2 585h-335z" />
    <glyph glyph-name="pi" unicode="&#x3c0;" horiz-adv-x="645" 
d="M237 142h67v-142h-38q-16 0 -29.5 15t-18 21.5t-7.5 17.5q-3 -12 -8 -19.5t-14 -16.5t-16 -13.5t-16 -4.5h-33v142h42l1 250q-8 1 -16 1h-12q-24 0 -51.5 -6.5t-38.5 -11.5q-13 -8 -19 -11v68q0 21 5 36t25 41.5t65 30.5h485v-148l-118 -1v-249h122v-142h-134
q-24 0 -40 5.5t-31.5 20t-22.5 28t-7 31.5v57h42v250h-185z" />
    <glyph glyph-name="integral" unicode="&#x222b;" horiz-adv-x="515" 
d="M206 48h-139v-143h139q23 0 40 8.5t35 27t26.5 34.5t8.5 38l1 277q0 17 3 29.5t17.5 34.5t51.5 26q-34 0 -49.5 22.5t-19 35.5t-3.5 31v258h139v143h-139q-23 0 -40 -8.5t-35 -27t-26.5 -34.5t-8.5 -38l2 -296q0 -32 -18 -58t-53 -30q32 -8 51.5 -35.5t19.5 -55.5z" />
    <glyph glyph-name="ordfeminine" unicode="&#xaa;" horiz-adv-x="450" 
d="M85 415q0 15 5 25t17.5 23.5t25.5 20t29 6.5h97v50h-150v-50h-25v158q14 -2 23 -12t12.5 -15t4.5 -12q1 6 6 13.5t13.5 16t18.5 8.5h73q15 0 25.5 -6t24.5 -19t20 -23.5t6 -26.5l-1 -207h50v-106h-24q-6 0 -11 3t-11.5 9.5t-10.5 12t-5 13.5q-1 -7 -4.5 -12t-12.5 -15.5
t-21 -10.5h-100q-14 0 -26 6.5t-24.5 19t-18.5 23t-6 26.5v81zM259 365v75h-124v-75h124zM85 144v46h284v-46h-284z" />
    <glyph glyph-name="ordmasculine" unicode="&#xba;" horiz-adv-x="385" 
d="M158 253q-15 0 -25.5 6t-24.5 19t-20 23.5t-6 26.5v235q0 15 6.5 27t20 25.5t24.5 19.5t27 6h72q14 0 26 -6.5t24.5 -19t18.5 -23t6 -26.5v-238q0 -14 -6.5 -26t-23.5 -29t-45 -20h-74zM133 359h124v175h-124v-175zM55 144v46h284v-46h-284z" />
    <glyph glyph-name="Omega" unicode="&#x3a9;" horiz-adv-x="710" 
d="M143 178h-111v-178h71q9 0 15 3.5t15 12.5t15 17.5t9 20.5q3 -11 7.5 -17.5t18 -21.5t29.5 -15h35l2 323q0 32 18.5 58t52.5 30q-34 9 -52.5 36t-18.5 55v105h213v-107q0 -17 -3 -29.5t-18.5 -34.5t-50.5 -26q34 0 49.5 -22.5t19 -35.5t3.5 -31l2 -321h35q16 0 29.5 15
t18 21.5t7.5 17.5q3 -12 8 -19.5t14 -16.5t16 -13.5t16 -4.5h71v178h-111l1 143q0 32 18.5 58t52.5 30q-34 9 -52 36t-18 55v193q0 22 -9 38t-27.5 33.5t-35 27t-36.5 9.5h-211q-23 0 -40 -8.5t-35 -27t-26.5 -34.5t-8.5 -38v-193q0 -17 -3 -29.5t-18.5 -34.5t-50.5 -26
q34 0 49.5 -22.5t19 -35.5t3.5 -31z" />
    <glyph glyph-name="ae" unicode="&#xe6;" horiz-adv-x="635" 
d="M35 213q0 22 8 37t26 33.5t35.5 28t40.5 9.5h139v71h-214v-71h-36v225q13 -3 18.5 -5.5t16 -14t15 -17.5t7.5 -18q3 12 8 19.5t14 16.5t16 13.5t16 4.5h105q22 0 36.5 -8.5t34 -27t28.5 -34.5t9 -38l-1 -295h71v-152h-34q-9 0 -15 3.5t-15 12.5t-15 17.5t-9 20.5
q-3 -11 -7.5 -17.5t-18 -21.5t-29.5 -15h-142q-22 0 -37.5 8.5t-34 27t-27.5 34t-9 37.5v116zM284 142v107h-177v-107h177zM357 214v-72h213v36h36v-81q0 -18 -6 -32t-26 -35.5t-36.5 -30.5t-38.5 -9h-106q-22 0 -37 8t-35 27t-28.5 33.5t-8.5 37.5v341q0 22 9 38t27.5 33.5
t35 27t36.5 9.5h106q22 0 38 -9t33.5 -27.5t26.5 -34.5t9 -37v-160q0 -14 -9.5 -24l-18 -18.5t-17.5 -14.5t-22 -6h-181zM357 321h177v71h-177v-71z" />
    <glyph glyph-name="oslash" unicode="&#xf8;" horiz-adv-x="385" 
d="M143 -10q-21 0 -37 9t-35.5 27.5t-28 33t-8.5 37.5v336q0 23 9 39.5t25.5 33t33 28t44.5 11.5h102q22 0 37.5 -8.5t34 -27t27.5 -34t9 -37.5v-341q0 -21 -9 -37t-33 -40t-65 -30h-106zM107 142h177v250h-177v-250zM217 620l74 -12l-121 -687l-74 14z" />
    <glyph glyph-name="questiondown" unicode="&#xbf;" horiz-adv-x="425" 
d="M403 106q0 -22 -8.5 -36.5t-26.5 -33t-35.5 -28t-40.5 -9.5h-139q-22 0 -36.5 8.5t-33.5 26.5t-28 34.5t-9 38.5v96q0 49 33 87l57 64q26 32 38.5 60t12.5 64v91h109v-88q0 -49 -16 -85.5t-47.5 -80l-56.5 -76.5q-23 -36 -23 -75q0 -26 22.5 -42t51.5 -16q26 0 47.5 13
t21.5 35v58h107v-106zM292 720q11 -17 28 -17q-17 0 -24.5 -11.5t-10 -18.5t-2.5 -14q-15 0 -28.5 -9.5t-16.5 -26.5q0 16 -14 25.5t-30 9.5q0 16 -10 30t-27 17q18 3 24.5 12.5t9.5 16t3 13.5q16 0 29.5 9.5t13.5 27.5q0 -9 4.5 -16.5t15 -14t26.5 -6.5q0 -15 9 -27z" />
    <glyph glyph-name="exclamdown" unicode="&#xa1;" horiz-adv-x="285" 
d="M203 719q11 -17 28 -17q-17 0 -24.5 -11.5t-10 -18.5t-2.5 -14q-15 0 -28.5 -9.5t-16.5 -26.5q0 16 -14 25.5t-30 9.5q0 16 -10 30t-27 17q18 3 24.5 12.5t9.5 16t3 13.5q16 0 29.5 9.5t13.5 27.5q0 -9 4.5 -16.5t15 -14t26.5 -6.5q0 -15 9 -27zM207 376q0 -17 3 -30.5
t19 -36t50 -22.5q-37 -4 -54.5 -31t-17.5 -58v-201h-108v199q0 27 -18.5 54t-52.5 36q34 4 52.5 30t18.5 58l-1 194h108z" />
    <glyph glyph-name="logicalnot" unicode="&#xac;" horiz-adv-x="622" 
d="M76 484v85h457v-291h-81v206h-376z" />
    <glyph glyph-name="radical" unicode="&#x221a;" horiz-adv-x="555" 
d="M0 528l139 144l219 -439l184 551l-170 -753l-260 538z" />
    <glyph glyph-name="florin" unicode="&#x192;" horiz-adv-x="465" 
d="M183 38h-178l1 -143h139q22 0 39 9t36 27t28 34t9 38v389h66v144h-71v106h179v143h-139q-23 0 -40 -8.5t-35 -27t-26.5 -34.5t-8.5 -38z" />
    <glyph glyph-name="approxequal" unicode="&#x2248;" horiz-adv-x="500" 
d="M69 356v39l112 112h38l91 -92l94 94h38v-37l-114 -114h-36l-92 92l-91 -94h-40zM74 166v39l112 112h38l91 -92l94 94h38v-37l-114 -114h-36l-92 92l-91 -94h-40z" />
    <glyph glyph-name="Delta" unicode="&#x2206;" horiz-adv-x="1005" 
d="M410 106q28 0 55 18.5t36 52.5q4 -34 30 -52.5t58 -18.5l201 4l-100 172q-15 27 -38.5 37t-41.5 10q-7 0 -27 -4q15 12 23 25t8 30v11q0 23 -13 46l-106 183l-99 -181q-9 -16 -12.5 -28.5t-2.5 -27.5q0 -34 33 -57q-17 6 -31 6q-17 0 -33 -7t-25 -16.5t-18 -24.5
l-107 -174zM15 0l197 336q7 13 9.5 25.5t2.5 30.5q0 23 -8 35t-20 24q17 -6 32 -6q14 0 36.5 8.5t37.5 37.5l193 349l198 -347q9 -18 17 -26.5t22.5 -14.5t34.5 -6q16 0 33 6q-32 -24 -32 -59q0 -29 15 -55l197 -338l-389 -2q-17 0 -30.5 -3t-36 -19t-22.5 -50
q-4 35 -31 53.5t-59 18.5z" />
    <glyph glyph-name="guillemotleft" unicode="&#xab;" horiz-adv-x="765" 
d="M747 782l-389 -391l394 -394l-288 394zM412 782l-389 -391l394 -394l-288 394z" />
    <glyph glyph-name="guillemotright" unicode="&#xbb;" horiz-adv-x="765" 
d="M24 782l389 -391l-394 -394l288 394zM359 782l389 -391l-394 -394l288 394z" />
    <glyph glyph-name="ellipsis" unicode="&#x2026;" horiz-adv-x="920" 
d="M50 63q-11 17 -28 17q17 0 27 14.5t10 29.5q9 0 13.5 2t16.5 9.5t15 24.5q0 -16 13.5 -25.5t30.5 -9.5q0 -16 10 -30t27 -17q-17 -3 -24 -12.5t-10 -16t-3 -13.5q-14 0 -28.5 -9.5t-14.5 -27.5q0 9 -4.5 15.5t-15.5 14t-26 7.5q0 15 -9 27zM360 63q-11 17 -28 17
q17 0 27 14.5t10 29.5q9 0 13.5 2t16.5 9.5t15 24.5q0 -16 13.5 -25.5t30.5 -9.5q0 -16 10 -30t27 -17q-17 -3 -24 -12.5t-10 -16t-3 -13.5q-14 0 -28.5 -9.5t-14.5 -27.5q0 9 -4.5 15.5t-15.5 14t-26 7.5q0 15 -9 27zM690 63q-11 17 -28 17q17 0 27 14.5t10 29.5
q9 0 13.5 2t16.5 9.5t15 24.5q0 -16 13.5 -25.5t30.5 -9.5q0 -16 10 -30t27 -17q-17 -3 -24 -12.5t-10 -16t-3 -13.5q-14 0 -28.5 -9.5t-14.5 -27.5q0 9 -4.5 15.5t-15.5 14t-26 7.5q0 15 -9 27z" />
    <glyph glyph-name="nbspace" unicode="&#xa0;" horiz-adv-x="250" 
 />
    <glyph glyph-name="Agrave" unicode="&#xc0;" horiz-adv-x="750" 
d="M214 178h72v-178h-71q-9 0 -15 3.5t-15 12.5t-15 17.5t-9 20.5q-3 -11 -7.5 -17.5t-18 -21.5t-29.5 -15h-71v178h71l19 59q3 8 3 15q0 10 -6.5 23.5t-16 31.5t-35.5 32q20 15 25.5 20l44.5 42q30 26 47 43t26 41l44 122h-44v178h107q16 0 29.5 -15t18 -21t7.5 -18
q3 12 8 19.5t14 16.5t16 13.5t16 4.5h106v-178h-42l42 -123q16 -47 52 -86.5t91 -59.5q-9 -10 -17 -21t-12 -19t-16.5 -25t-12.5 -29l2 -11l21 -55h72v-178h-71q-9 0 -15 3.5t-15 12.5t-15 17.5t-9 20.5q-3 -11 -7.5 -17.5t-18 -21.5t-29.5 -15h-71v178h71l-39 107h-242z
M294 393l162 -1l-80 215zM493 821h-54l-160 159v55h56l158 -160v-54z" />
    <glyph glyph-name="Atilde" unicode="&#xc3;" horiz-adv-x="750" 
d="M214 178h72v-178h-71q-9 0 -15 3.5t-15 12.5t-15 17.5t-9 20.5q-3 -11 -7.5 -17.5t-18 -21.5t-29.5 -15h-71v178h71l19 59q3 8 3 15q0 10 -6.5 23.5t-16 31.5t-35.5 32q20 15 25.5 20l44.5 42q30 26 47 43t26 41l44 122h-44v178h107q16 0 29.5 -15t18 -21t7.5 -18
q3 12 8 19.5t14 16.5t16 13.5t16 4.5h106v-178h-42l42 -123q16 -47 52 -86.5t91 -59.5q-9 -10 -17 -21t-12 -19t-16.5 -25t-12.5 -29l2 -11l21 -55h72v-178h-71q-9 0 -15 3.5t-15 12.5t-15 17.5t-9 20.5q-3 -11 -7.5 -17.5t-18 -21.5t-29.5 -15h-71v178h71l-39 107h-242z
M294 393l162 -1l-80 215zM199 831v39l112 112h38l91 -92l94 94h38v-37l-114 -114h-36l-92 92l-91 -94h-40z" />
    <glyph glyph-name="Otilde" unicode="&#xd5;" 
d="M214 -15q-22 0 -37.5 8.5t-34 27t-27.5 34t-9 37.5v229q0 17 -3 30.5t-19 36t-50 22.5q35 4 53.5 31t18.5 59v193q0 22 8 37t26 33.5t35.5 28t40.5 9.5h211q22 0 36.5 -8.5t34 -27t28.5 -34.5t9 -38v-193q0 -28 18 -55t52 -36q-34 -4 -52.5 -30t-18.5 -58v-229
q0 -21 -9 -37t-33 -40t-65 -30h-213zM214 502q0 -28 18.5 -55t52.5 -36q-34 -4 -52.5 -30t-18.5 -58l-1 -145h214v143q0 17 -3 30.5t-19 36t-50 22.5q35 4 53.5 31t18.5 59v107h-213v-105zM149 831v39l112 112h38l91 -92l94 94h38v-37l-114 -114h-36l-92 92l-91 -94h-40z
" />
    <glyph glyph-name="OE" unicode="&#x152;" horiz-adv-x="865" 
d="M214 502q0 -28 18.5 -55t52.5 -36q-34 -4 -52.5 -30t-18.5 -58l-1 -145h214v143q0 17 -3 30.5t-19 36t-50 22.5q35 4 53.5 31t18.5 59v107h-213v-105zM214 0q-22 0 -37.5 8.5t-34 27t-27.5 34t-9 37.5v214q0 17 -3 30.5t-19 36t-50 22.5q35 4 53.5 31t18.5 59v173
q0 21 8.5 37t27 35.5t34.5 29.5t40 10h210q16 0 29.5 -15t18 -21t7.5 -18q3 12 8 19.5t14 16.5t16 13.5t16 4.5h141q16 0 29.5 -15t18 -21t7.5 -18q3 12 8 19.5t14 16.5t16 13.5t16 4.5h35v-250h-72v72h-214v-143h107v35h72v-34q0 -9 -2.5 -13.5t-12.5 -15.5t-18.5 -17
t-20.5 -9q11 -3 22 -11.5l21.5 -17t10.5 -25.5v-35h-72v36h-106v-179h213v71h71v-249h-34q-9 0 -15 3.5t-15 12.5t-15 17.5t-9 20.5q-3 -11 -7.5 -17.5t-18 -21.5t-29.5 -15h-141q-9 0 -15 3.5t-15 12.5t-15 17.5t-9 20.5q-3 -11 -7.5 -17.5t-18.5 -21.5t-33 -15h-208z" />
    <glyph glyph-name="oe" unicode="&#x153;" horiz-adv-x="635" 
d="M357 214v-72h213v36h36v-81q0 -18 -6 -32t-26 -35.5t-36.5 -30.5t-38.5 -9h-106q-22 0 -37 8t-35 27t-28.5 33.5t-8.5 37.5v341q0 22 9 38t27.5 33.5t35 27t36.5 9.5h106q22 0 38 -9t33.5 -27.5t26.5 -34.5t9 -37v-160q0 -14 -9.5 -24l-18 -18.5t-17.5 -14.5t-22 -6h-181
zM357 321h177v71h-177v-71zM143 -10q-21 0 -37 9t-35.5 27.5t-28 33t-8.5 37.5v336q0 23 9 39.5t25.5 33t33 28t44.5 11.5h102q22 0 37.5 -8.5t34 -27t27.5 -34t9 -37.5v-341q0 -21 -9 -37t-33 -40t-65 -30h-106zM107 142h177v250h-177v-250z" />
    <glyph glyph-name="endash" unicode="&#x2013;" horiz-adv-x="450" 
d="M321 323q-17 0 -30.5 -3t-36 -19t-22.5 -50q-4 37 -31 54.5t-59 17.5h-110v108h108q28 0 55 18.5t36 52.5q4 -34 30 -52.5t58 -18.5h114v-108h-112z" />
    <glyph glyph-name="emdash" unicode="&#x2014;" horiz-adv-x="895" 
d="M551 323q-17 0 -30.5 -3t-36 -19t-22.5 -50q-4 37 -31 54.5t-59 17.5h-335v108h333q28 0 55 18.5t36 52.5q4 -34 30 -52.5t58 -18.5h329v-108h-327z" />
    <glyph glyph-name="quotedblleft" unicode="&#x201c;" horiz-adv-x="440" 
d="M159 630q13 -17 28 -17q-18 -3 -24.5 -13t-9 -17t-2.5 -14q-9 0 -13.5 -2t-16.5 -9.5t-15 -24.5q0 16 -14 25.5t-30 9.5q0 16 -10 30t-28 17q18 3 27.5 16t9.5 26q-2 16 -2 22q0 27 23 71t88 50q-26 -6 -41.5 -29t-15.5 -52q0 -24 11 -39t26 -23q0 -14 9 -27zM399 630
q13 -17 28 -17q-18 -3 -24.5 -13t-9 -17t-2.5 -14q-9 0 -13.5 -2t-16.5 -9.5t-15 -24.5q0 16 -14 25.5t-30 9.5q0 16 -10 30t-28 17q18 3 27.5 16t9.5 26q-2 16 -2 22q0 27 23 71t88 50q-26 -6 -41.5 -29t-15.5 -52q0 -24 11 -39t26 -23q0 -14 9 -27z" />
    <glyph glyph-name="quotedblright" unicode="&#x201d;" horiz-adv-x="445" 
d="M50 703q-11 17 -28 17q17 0 27 14.5t10 29.5q9 0 13.5 2t16.5 9.5t15 24.5q0 -16 13.5 -25.5t30.5 -9.5q0 -16 10 -30t27 -17q-17 -3 -24 -12.5t-10 -16t-3 -13.5q2 -16 2 -23q0 -29 -23 -71.5t-88 -48.5q26 6 41.5 29t15.5 52q0 24 -11 39.5t-26 22.5q0 15 -9 27z
M295 703q-11 17 -28 17q17 0 27 14.5t10 29.5q9 0 13.5 2t16.5 9.5t15 24.5q0 -16 13.5 -25.5t30.5 -9.5q0 -16 10 -30t27 -17q-17 -3 -24 -12.5t-10 -16t-3 -13.5q2 -16 2 -23q0 -29 -23 -71.5t-88 -48.5q26 6 41.5 29t15.5 52q0 24 -11 39.5t-26 22.5q0 15 -9 27z" />
    <glyph glyph-name="quoteleft" unicode="&#x2018;" horiz-adv-x="200" 
d="M159 630q13 -17 28 -17q-18 -3 -24.5 -13t-9 -17t-2.5 -14q-9 0 -13.5 -2t-16.5 -9.5t-15 -24.5q0 16 -14 25.5t-30 9.5q0 16 -10 30t-28 17q18 3 27.5 16t9.5 26q-2 16 -2 22q0 27 23 71t88 50q-26 -6 -41.5 -29t-15.5 -52q0 -24 11 -39t26 -23q0 -14 9 -27z" />
    <glyph glyph-name="quoteright" unicode="&#x2019;" horiz-adv-x="200" 
d="M50 703q-11 17 -28 17q17 0 27 14.5t10 29.5q9 0 13.5 2t16.5 9.5t15 24.5q0 -16 13.5 -25.5t30.5 -9.5q0 -16 10 -30t27 -17q-17 -3 -24 -12.5t-10 -16t-3 -13.5q2 -16 2 -23q0 -29 -23 -71.5t-88 -48.5q26 6 41.5 29t15.5 52q0 24 -11 39.5t-26 22.5q0 15 -9 27z" />
    <glyph glyph-name="divide" unicode="&#xf7;" horiz-adv-x="425" 
d="M40 330v65h340v-65h-340zM160 173q-11 17 -28 17q17 0 27 14.5t10 29.5q9 0 13.5 2t16.5 9.5t15 24.5q0 -16 13.5 -25.5t30.5 -9.5q0 -16 10 -30t27 -17q-17 -3 -24 -12.5t-10 -16t-3 -13.5q-14 0 -28.5 -9.5t-14.5 -27.5q0 9 -4.5 15.5t-15.5 14t-26 7.5q0 15 -9 27z
M155 513q-11 17 -28 17q17 0 27 14.5t10 29.5q9 0 13.5 2t16.5 9.5t15 24.5q0 -16 13.5 -25.5t30.5 -9.5q0 -16 10 -30t27 -17q-17 -3 -24 -12.5t-10 -16t-3 -13.5q-14 0 -28.5 -9.5t-14.5 -27.5q0 9 -4.5 15.5t-15.5 14t-26 7.5q0 15 -9 27z" />
    <glyph glyph-name="lozenge" unicode="&#x25ca;" 
d="M130 327q-11 21 -17 29t-21 20.5t-28.5 20.5t-29.5 13q14 6 27.5 14.5t29.5 20.5t22 17.5t12 16.5l192 327l195 -312q16 -27 41 -49t52 -35q-28 -10 -51 -30.5t-38 -46.5l-199 -333zM200 410l118 -237l131 237l-132 200z" />
    <glyph glyph-name="ydieresis" unicode="&#xff;" horiz-adv-x="525" 
d="M105 673q-11 17 -28 17q17 0 27 14.5t10 29.5q9 0 13.5 2t16.5 9.5t15 24.5q0 -16 13.5 -25.5t30.5 -9.5q0 -16 10 -30t27 -17q-17 -3 -24 -12.5t-10 -16t-3 -13.5q-14 0 -28.5 -9.5t-14.5 -27.5q0 9 -4.5 15.5t-15.5 14t-26 7.5q0 15 -9 27zM310 673q-11 17 -28 17
q17 0 27 14.5t10 29.5q9 0 13.5 2t16.5 9.5t15 24.5q0 -16 13.5 -25.5t30.5 -9.5q0 -16 10 -30t27 -17q-17 -3 -24 -12.5t-10 -16t-3 -13.5q-14 0 -28.5 -9.5t-14.5 -27.5q0 9 -4.5 15.5t-15.5 14t-26 7.5q0 15 -9 27zM378 393h-60v142h42q14 0 24 -16q14 -19 16.5 -23.5
t3.5 -14.5q1 11 6 19t12 17.5t12.5 13.5t12.5 4h47v-142h-55l-175 -381l-52 -120h-41q-14 0 -24 16q-14 19 -16.5 23.5t-3.5 14.5q-1 -11 -4.5 -17.5t-12.5 -17.5t-14.5 -15t-12.5 -4h-46v143h177l49 105l-164 253h-60v142h42q14 0 24 -16q14 -19 16.5 -23.5t3.5 -14.5
q1 11 6 19t12 17.5t12.5 13.5t12.5 4h46v-142h-55l129 -196z" />
    <glyph glyph-name="Ydieresis" unicode="&#x178;" horiz-adv-x="745" 
d="M481 427q-15 -11 -34.5 -29t-19.5 -38q0 -26 23 -44t51 -14q-38 -6 -55.5 -33.5t-17.5 -60.5v-30h71v-178h-71q-9 0 -15 3.5t-15 12.5t-15 17.5t-9 20.5q-3 -11 -7.5 -17.5t-18 -21.5t-29.5 -15h-71v178h72v35q0 17 -3 30.5t-19 36t-50 22.5q28 -3 52.5 15.5t20.5 44.5
q-2 13 -22 37.5t-27 29.5l-179 178h-59v178h71q16 0 29.5 -15t18 -21t7.5 -18q3 12 8 19.5t14 16.5t16 13.5t16 4.5h71v-178h-90l181 -187l177 187h-89v178h71q16 0 29.5 -15t18 -21t7.5 -18q3 12 8 19.5t14 16.5t16 13.5t16 4.5h71v-178h-57zM220 873q-11 17 -28 17
q17 0 27 14.5t10 29.5q9 0 13.5 2t16.5 9.5t15 24.5q0 -16 13.5 -25.5t30.5 -9.5q0 -16 10 -30t27 -17q-17 -3 -24 -12.5t-10 -16t-3 -13.5q-14 0 -28.5 -9.5t-14.5 -27.5q0 9 -4.5 15.5t-15.5 14t-26 7.5q0 15 -9 27zM425 873q-11 17 -28 17q17 0 27 14.5t10 29.5
q9 0 13.5 2t16.5 9.5t15 24.5q0 -16 13.5 -25.5t30.5 -9.5q0 -16 10 -30t27 -17q-17 -3 -24 -12.5t-10 -16t-3 -13.5q-14 0 -28.5 -9.5t-14.5 -27.5q0 9 -4.5 15.5t-15.5 14t-26 7.5q0 15 -9 27z" />
    <glyph glyph-name="fraction" unicode="&#x2215;" horiz-adv-x="575" 
d="M279 486q-7 -17 -16 -29.5t-30.5 -29t-59.5 -16.5q34 -13 36.5 -30.5t2.5 -25.5q0 -12 -1 -16t-10 -29l-180 -409l100 -19l181 407q13 30 41.5 52t64.5 26q-31 13 -35 32t-4 24q0 11 1 15.5t10 27.5l176 397l-101 18z" />
    <glyph glyph-name="currency" unicode="&#xa4;" horiz-adv-x="564" 
d="M384 691l92 92l48 -47l-92 -92zM44 136l92 92l48 -47l-92 -92zM92 787l92 -92l-48 -47l-92 92zM432 228l92 -92l-47 -47l-92 91zM233 160q-21 0 -37 9t-35.5 27.5t-28 33t-8.5 37.5v336q0 23 9 39.5t25.5 33t33 28t44.5 11.5h102q22 0 37.5 -8.5t34 -27t27.5 -34t9 -37.5
v-341q0 -21 -9 -37t-33 -40t-65 -30h-106zM197 312h177v250h-177v-250z" />
    <glyph glyph-name="guilsinglleft" unicode="&#x2039;" horiz-adv-x="425" 
d="M408 0l-389 391l394 394l-288 -394z" />
    <glyph glyph-name="guilsinglright" unicode="&#x203a;" horiz-adv-x="425" 
d="M24 782l389 -391l-394 -394l288 394z" />
    <glyph glyph-name="fi" unicode="&#xf001;" horiz-adv-x="545" 
d="M182 392h66v144h-71v106h179v143h-139q-23 0 -40 -8.5t-35 -27t-26.5 -34.5t-8.5 -38l2 -535h-71v-142h58q9 0 15 3.5t15 12.5t15 17.5t9 20.5q3 -11 7.5 -17.5t18 -21.5t29.5 -15h52v142h-75v250zM437 142h75v-142h-52q-16 0 -29.5 15t-18 21.5t-7.5 17.5
q-3 -12 -8 -19.5t-14 -16.5t-16 -13.5t-16 -4.5h-58v142h69v250h-72v143h35q9 0 15 -3.5t15 -12.5t15 -17.5t9 -20.5q3 11 7.5 17.5t18 21.5t29.5 15h35v-143h-32v-250z" />
    <glyph glyph-name="fl" unicode="&#xf002;" horiz-adv-x="650" 
d="M182 392h66v144h-71v106h179v143h-139q-23 0 -40 -8.5t-35 -27t-26.5 -34.5t-8.5 -38l2 -535h-71v-142h58q9 0 15 3.5t15 12.5t15 17.5t9 20.5q3 -11 7.5 -17.5t18 -21.5t29.5 -15h52v142h-75v250zM542 142h75v-142h-52q-16 0 -29.5 15t-18 21.5t-7.5 17.5
q-3 -12 -8 -19.5t-14 -16.5t-16 -13.5t-16 -4.5h-58v142h71l-2 500h-72v143h35q9 0 15 -3.5t15 -12.5t15 -17.5t9 -20.5q3 11 7.5 17.5t18 21.5t29.5 15h35v-143h-32v-500z" />
    <glyph glyph-name="daggerdbl" unicode="&#x2021;" horiz-adv-x="640" 
d="M156 658q-17 0 -30.5 -3t-36 -19t-22.5 -50l-1 251q4 -34 30 -52.5t58 -18.5h114v-108h-112zM572 586q-4 35 -31 53.5t-59 18.5h-110v108h108q28 0 55 18.5t36 52.5zM161 244q-17 0 -30.5 3t-36 19t-22.5 50l-1 -251q4 34 30 52.5t58 18.5h114v108h-112zM577 316
q-4 -35 -31 -53.5t-59 -18.5h-110v-108h108q28 0 55 -18.5t36 -52.5zM373 545v327h-108v-329v-17q0 -14 -2.5 -23.5t-14 -22t-23 -21.5t-26.5 -12q34 -4 52.5 -30t18.5 -58v-329h108v327q0 17 3 30.5t19 36t50 22.5q-14 2 -22.5 7t-28 22t-23 31t-3.5 39z" />
    <glyph glyph-name="periodcentered" unicode="&#x2219;" horiz-adv-x="200" 
d="M50 418q-11 17 -28 17q17 0 27 14.5t10 29.5q9 0 13.5 2t16.5 9.5t15 24.5q0 -16 13.5 -25.5t30.5 -9.5q0 -16 10 -30t27 -17q-17 -3 -24 -12.5t-10 -16t-3 -13.5q-14 0 -28.5 -9.5t-14.5 -27.5q0 9 -4.5 15.5t-15.5 14t-26 7.5q0 15 -9 27z" />
    <glyph glyph-name="quotesinglbase" unicode="&#x201a;" horiz-adv-x="445" 
d="M55 63q-11 17 -28 17q17 0 27 14.5t10 29.5q9 0 13.5 2t16.5 9.5t15 24.5q0 -16 13.5 -25.5t30.5 -9.5q0 -16 10 -30t27 -17q-17 -3 -24 -12.5t-10 -16t-3 -13.5q2 -16 2 -23q0 -29 -23 -71.5t-88 -48.5q26 6 41.5 29t15.5 52q0 24 -11 39.5t-26 22.5q0 15 -9 27zM300 63
q-11 17 -28 17q17 0 27 14.5t10 29.5q9 0 13.5 2t16.5 9.5t15 24.5q0 -16 13.5 -25.5t30.5 -9.5q0 -16 10 -30t27 -17q-17 -3 -24 -12.5t-10 -16t-3 -13.5q2 -16 2 -23q0 -29 -23 -71.5t-88 -48.5q26 6 41.5 29t15.5 52q0 24 -11 39.5t-26 22.5q0 15 -9 27z" />
    <glyph glyph-name="quotedblbase" unicode="&#x201e;" horiz-adv-x="200" 
d="M60 63q-11 17 -28 17q17 0 27 14.5t10 29.5q9 0 13.5 2t16.5 9.5t15 24.5q0 -16 13.5 -25.5t30.5 -9.5q0 -16 10 -30t27 -17q-17 -3 -24 -12.5t-10 -16t-3 -13.5q2 -16 2 -23q0 -29 -23 -71.5t-88 -48.5q26 6 41.5 29t15.5 52q0 24 -11 39.5t-26 22.5q0 15 -9 27z" />
    <glyph glyph-name="perthousand" unicode="&#x2030;" horiz-adv-x="1175" 
d="M353 491q-2 -17 -7.5 -29t-23 -29t-55.5 -17q35 -10 46 -35.5t11 -42.5l-2 -23l-72 -409l106 -19l72 407q4 30 22 47t32.5 24t31.5 7q-34 11 -45.5 36t-11.5 44q0 5 2 19l70 397l-106 18zM112 451q-11 0 -19 4.5t-18.5 15t-13.5 17.5t-3 16v107q0 16 -9.5 30.5
t-26.5 14.5q17 0 26.5 14.5t9.5 30.5v89q0 11 4.5 19t16.5 21.5t34 13.5h105q11 0 17.5 -3.5t21.5 -17t15 -33.5v-89q0 -9 2 -13.5t9.5 -16.5t23.5 -16q-16 0 -25.5 -13.5t-9.5 -30.5v-107q0 -10 -4.5 -18t-16.5 -20t-33 -15h-106zM112 702q0 -9 2 -13.5t9.5 -16.5t23.5 -16
q-16 0 -25.5 -13.5t-9.5 -30.5l-1 -72h107v71q0 17 -9 31t-27 14q18 0 27 14t9 31v53h-106v-52zM567 -59q-11 0 -19 4.5t-18.5 15t-13.5 17.5t-3 16v107q0 16 -9.5 30.5t-26.5 14.5q17 0 26.5 14.5t9.5 30.5v89q0 11 4.5 19t16.5 21.5t34 13.5h105q11 0 17.5 -3.5t21.5 -17
t15 -33.5v-89q0 -9 2 -13.5t9.5 -16.5t23.5 -16q-16 0 -25.5 -13.5t-9.5 -30.5v-107q0 -10 -4.5 -18t-16.5 -20t-33 -15h-106zM567 192q0 -9 2 -13.5t9.5 -16.5t23.5 -16q-16 0 -25.5 -13.5t-9.5 -30.5l-1 -72h107v71q0 17 -9 31t-27 14q18 0 27 14t9 31v53h-106v-52z
M937 -59q-11 0 -19 4.5t-18.5 15t-13.5 17.5t-3 16v107q0 16 -9.5 30.5t-26.5 14.5q17 0 26.5 14.5t9.5 30.5v89q0 11 4.5 19t16.5 21.5t34 13.5h105q11 0 17.5 -3.5t21.5 -17t15 -33.5v-89q0 -9 2 -13.5t9.5 -16.5t23.5 -16q-16 0 -25.5 -13.5t-9.5 -30.5v-107
q0 -10 -4.5 -18t-16.5 -20t-33 -15h-106zM937 192q0 -9 2 -13.5t9.5 -16.5t23.5 -16q-16 0 -25.5 -13.5t-9.5 -30.5l-1 -72h107v71q0 17 -9 31t-27 14q18 0 27 14t9 31v53h-106v-52z" />
    <glyph glyph-name="Acircumflex" unicode="&#xc2;" horiz-adv-x="750" 
d="M214 178h72v-178h-71q-9 0 -15 3.5t-15 12.5t-15 17.5t-9 20.5q-3 -11 -7.5 -17.5t-18 -21.5t-29.5 -15h-71v178h71l19 59q3 8 3 15q0 10 -6.5 23.5t-16 31.5t-35.5 32q20 15 25.5 20l44.5 42q30 26 47 43t26 41l44 122h-44v178h107q16 0 29.5 -15t18 -21t7.5 -18
q3 12 8 19.5t14 16.5t16 13.5t16 4.5h106v-178h-42l42 -123q16 -47 52 -86.5t91 -59.5q-9 -10 -17 -21t-12 -19t-16.5 -25t-12.5 -29l2 -11l21 -55h72v-178h-71q-9 0 -15 3.5t-15 12.5t-15 17.5t-9 20.5q-3 -11 -7.5 -17.5t-18 -21.5t-29.5 -15h-71v178h71l-39 107h-242z
M294 393l162 -1l-80 215zM245 809h-56v55l160 161h55l159 -160v-54h-54l-131 130z" />
    <glyph glyph-name="Ecircumflex" unicode="&#xca;" horiz-adv-x="570" 
d="M534 0v249h-71v-71h-213v179h106v-36h72v35q0 17 -12.5 27l-21 17t-20.5 10q12 3 20.5 9t16.5 15t12.5 16t4.5 15v34h-72v-35h-107v143h214v-72h72v250h-35q-9 0 -15 -3.5t-15 -12.5t-15 -17.5t-9 -20.5q-3 11 -7.5 17.5t-18 21.5t-29.5 15h-141q-9 0 -15 -3.5t-15 -12.5
t-15 -17.5t-9 -20.5q-3 11 -7.5 17.5t-18 21.5t-29.5 15h-106v-178h106v-107q0 -20 -2.5 -30t-17 -33t-51.5 -27q34 0 49.5 -22.5t19 -35.5t3.5 -31l-1 -143h-107v-178h107q16 0 29.5 15t18 21.5t7.5 17.5q3 -12 8 -19.5t14 -16.5t16 -13.5t16 -4.5h141q16 0 29.5 15
t18 21.5t7.5 17.5q3 -12 8 -19.5t14 -16.5t16 -13.5t16 -4.5h34zM170 814h-56v55l160 161h55l159 -160v-54h-54l-131 130z" />
    <glyph glyph-name="Aacute" unicode="&#xc1;" horiz-adv-x="750" 
d="M214 178h72v-178h-71q-9 0 -15 3.5t-15 12.5t-15 17.5t-9 20.5q-3 -11 -7.5 -17.5t-18 -21.5t-29.5 -15h-71v178h71l19 59q3 8 3 15q0 10 -6.5 23.5t-16 31.5t-35.5 32q20 15 25.5 20l44.5 42q30 26 47 43t26 41l44 122h-44v178h107q16 0 29.5 -15t18 -21t7.5 -18
q3 12 8 19.5t14 16.5t16 13.5t16 4.5h106v-178h-42l42 -123q16 -47 52 -86.5t91 -59.5q-9 -10 -17 -21t-12 -19t-16.5 -25t-12.5 -29l2 -11l21 -55h72v-178h-71q-9 0 -15 3.5t-15 12.5t-15 17.5t-9 20.5q-3 -11 -7.5 -17.5t-18 -21.5t-29.5 -15h-71v178h71l-39 107h-242z
M294 393l162 -1l-80 215zM259 821h54l160 159v55h-56l-158 -160v-54z" />
    <glyph glyph-name="Edieresis" unicode="&#xcb;" horiz-adv-x="570" 
d="M534 0v249h-71v-71h-213v179h106v-36h72v35q0 17 -12.5 27l-21 17t-20.5 10q12 3 20.5 9t16.5 15t12.5 16t4.5 15v34h-72v-35h-107v143h214v-72h72v250h-35q-9 0 -15 -3.5t-15 -12.5t-15 -17.5t-9 -20.5q-3 11 -7.5 17.5t-18 21.5t-29.5 15h-141q-9 0 -15 -3.5t-15 -12.5
t-15 -17.5t-9 -20.5q-3 11 -7.5 17.5t-18 21.5t-29.5 15h-106v-178h106v-107q0 -20 -2.5 -30t-17 -33t-51.5 -27q34 0 49.5 -22.5t19 -35.5t3.5 -31l-1 -143h-107v-178h107q16 0 29.5 15t18 21.5t7.5 17.5q3 -12 8 -19.5t14 -16.5t16 -13.5t16 -4.5h141q16 0 29.5 15
t18 21.5t7.5 17.5q3 -12 8 -19.5t14 -16.5t16 -13.5t16 -4.5h34zM125 868q-11 17 -28 17q17 0 27 14.5t10 29.5q9 0 13.5 2t16.5 9.5t15 24.5q0 -16 13.5 -25.5t30.5 -9.5q0 -16 10 -30t27 -17q-17 -3 -24 -12.5t-10 -16t-3 -13.5q-14 0 -28.5 -9.5t-14.5 -27.5
q0 9 -4.5 15.5t-15.5 14t-26 7.5q0 15 -9 27zM330 868q-11 17 -28 17q17 0 27 14.5t10 29.5q9 0 13.5 2t16.5 9.5t15 24.5q0 -16 13.5 -25.5t30.5 -9.5q0 -16 10 -30t27 -17q-17 -3 -24 -12.5t-10 -16t-3 -13.5q-14 0 -28.5 -9.5t-14.5 -27.5q0 9 -4.5 15.5t-15.5 14
t-26 7.5q0 15 -9 27z" />
    <glyph glyph-name="Egrave" unicode="&#xc8;" horiz-adv-x="570" 
d="M534 0v249h-71v-71h-213v179h106v-36h72v35q0 17 -12.5 27l-21 17t-20.5 10q12 3 20.5 9t16.5 15t12.5 16t4.5 15v34h-72v-35h-107v143h214v-72h72v250h-35q-9 0 -15 -3.5t-15 -12.5t-15 -17.5t-9 -20.5q-3 11 -7.5 17.5t-18 21.5t-29.5 15h-141q-9 0 -15 -3.5t-15 -12.5
t-15 -17.5t-9 -20.5q-3 11 -7.5 17.5t-18 21.5t-29.5 15h-106v-178h106v-107q0 -20 -2.5 -30t-17 -33t-51.5 -27q34 0 49.5 -22.5t19 -35.5t3.5 -31l-1 -143h-107v-178h107q16 0 29.5 15t18 21.5t7.5 17.5q3 -12 8 -19.5t14 -16.5t16 -13.5t16 -4.5h141q16 0 29.5 15
t18 21.5t7.5 17.5q3 -12 8 -19.5t14 -16.5t16 -13.5t16 -4.5h34zM398 821h-54l-160 159v55h56l158 -160v-54z" />
    <glyph glyph-name="Iacute" unicode="&#xcd;" horiz-adv-x="350" 
d="M230 178h71v-178h-71q-9 0 -15 3.5t-15 12.5t-15 17.5t-9 20.5q-3 -11 -7.5 -17.5t-18 -21.5t-29.5 -15h-71v178h71v143q0 20 -2.5 31.5t-18.5 34.5t-50 23q37 4 51 25.5t17 35t3 29.5v107h-71v178h71q16 0 29.5 -15t18 -21t7.5 -18q3 12 8 19.5t14 16.5t16 13.5t16 4.5
h71v-178h-72v-112q0 -17 3 -29.5t18.5 -34.5t50.5 -26q-34 0 -49.5 -22.5t-18.5 -36.5t-3 -30v-138zM74 821h54l160 159v55h-56l-158 -160v-54z" />
    <glyph glyph-name="Icircumflex" unicode="&#xce;" horiz-adv-x="350" 
d="M230 178h71v-178h-71q-9 0 -15 3.5t-15 12.5t-15 17.5t-9 20.5q-3 -11 -7.5 -17.5t-18 -21.5t-29.5 -15h-71v178h71v143q0 20 -2.5 31.5t-18.5 34.5t-50 23q37 4 51 25.5t17 35t3 29.5v107h-71v178h71q16 0 29.5 -15t18 -21t7.5 -18q3 12 8 19.5t14 16.5t16 13.5t16 4.5
h71v-178h-72v-112q0 -17 3 -29.5t18.5 -34.5t50.5 -26q-34 0 -49.5 -22.5t-18.5 -36.5t-3 -30v-138zM50 799h-56v55l160 161h55l159 -160v-54h-54l-131 130z" />
    <glyph glyph-name="Idieresis" unicode="&#xcf;" horiz-adv-x="350" 
d="M230 178h71v-178h-71q-9 0 -15 3.5t-15 12.5t-15 17.5t-9 20.5q-3 -11 -7.5 -17.5t-18 -21.5t-29.5 -15h-71v178h71v143q0 20 -2.5 31.5t-18.5 34.5t-50 23q37 4 51 25.5t17 35t3 29.5v107h-71v178h71q16 0 29.5 -15t18 -21t7.5 -18q3 12 8 19.5t14 16.5t16 13.5t16 4.5
h71v-178h-72v-112q0 -17 3 -29.5t18.5 -34.5t50.5 -26q-34 0 -49.5 -22.5t-18.5 -36.5t-3 -30v-138zM15 883q-11 17 -28 17q17 0 27 14.5t10 29.5q9 0 13.5 2t16.5 9.5t15 24.5q0 -16 13.5 -25.5t30.5 -9.5q0 -16 10 -30t27 -17q-17 -3 -24 -12.5t-10 -16t-3 -13.5
q-14 0 -28.5 -9.5t-14.5 -27.5q0 9 -4.5 15.5t-15.5 14t-26 7.5q0 15 -9 27zM220 883q-11 17 -28 17q17 0 27 14.5t10 29.5q9 0 13.5 2t16.5 9.5t15 24.5q0 -16 13.5 -25.5t30.5 -9.5q0 -16 10 -30t27 -17q-17 -3 -24 -12.5t-10 -16t-3 -13.5q-14 0 -28.5 -9.5t-14.5 -27.5
q0 9 -4.5 15.5t-15.5 14t-26 7.5q0 15 -9 27z" />
    <glyph glyph-name="Igrave" unicode="&#xcc;" horiz-adv-x="350" 
d="M230 178h71v-178h-71q-9 0 -15 3.5t-15 12.5t-15 17.5t-9 20.5q-3 -11 -7.5 -17.5t-18 -21.5t-29.5 -15h-71v178h71v143q0 20 -2.5 31.5t-18.5 34.5t-50 23q37 4 51 25.5t17 35t3 29.5v107h-71v178h71q16 0 29.5 -15t18 -21t7.5 -18q3 12 8 19.5t14 16.5t16 13.5t16 4.5
h71v-178h-72v-112q0 -17 3 -29.5t18.5 -34.5t50.5 -26q-34 0 -49.5 -22.5t-18.5 -36.5t-3 -30v-138zM273 821h-54l-160 159v55h56l158 -160v-54z" />
    <glyph glyph-name="Oacute" unicode="&#xd3;" 
d="M214 -15q-22 0 -37.5 8.5t-34 27t-27.5 34t-9 37.5v229q0 17 -3 30.5t-19 36t-50 22.5q35 4 53.5 31t18.5 59v193q0 22 8 37t26 33.5t35.5 28t40.5 9.5h211q22 0 36.5 -8.5t34 -27t28.5 -34.5t9 -38v-193q0 -28 18 -55t52 -36q-34 -4 -52.5 -30t-18.5 -58v-229
q0 -21 -9 -37t-33 -40t-65 -30h-213zM214 502q0 -28 18.5 -55t52.5 -36q-34 -4 -52.5 -30t-18.5 -58l-1 -145h214v143q0 17 -3 30.5t-19 36t-50 22.5q35 4 53.5 31t18.5 59v107h-213v-105zM223 821h54l160 159v55h-56l-158 -160v-54z" />
    <glyph glyph-name="Ocircumflex" unicode="&#xd4;" 
d="M214 -15q-22 0 -37.5 8.5t-34 27t-27.5 34t-9 37.5v229q0 17 -3 30.5t-19 36t-50 22.5q35 4 53.5 31t18.5 59v193q0 22 8 37t26 33.5t35.5 28t40.5 9.5h211q22 0 36.5 -8.5t34 -27t28.5 -34.5t9 -38v-193q0 -28 18 -55t52 -36q-34 -4 -52.5 -30t-18.5 -58v-229
q0 -21 -9 -37t-33 -40t-65 -30h-213zM214 502q0 -28 18.5 -55t52.5 -36q-34 -4 -52.5 -30t-18.5 -58l-1 -145h214v143q0 17 -3 30.5t-19 36t-50 22.5q35 4 53.5 31t18.5 59v107h-213v-105zM190 809h-56v55l160 161h55l159 -160v-54h-54l-131 130z" />
    <glyph glyph-name="apple" unicode="&#xf000;" horiz-adv-x="723" 
d="M676 224q-8 -63 -65 -111.5t-107 -48.5q-27 0 -67 22t-67 22q-24 0 -58 -22t-58 -22q-63 0 -141 100.5t-78 193.5q0 86 61.5 152.5t140.5 66.5q26 0 74.5 -17.5t72.5 -17.5t70 13t67 13q39 0 65.5 -17.5t54.5 -81.5q-39 -13 -62 -46t-23 -75v-12q5 -47 39 -79.5t81 -32.5
zM384 573q-11 28 -11 53q0 36 31.5 82.5t99.5 46.5q11 0 17 -1q0 -31 -9.5 -55.5t-38 -64.5t-89.5 -61z" />
    <glyph glyph-name="Ograve" unicode="&#xd2;" 
d="M214 -15q-22 0 -37.5 8.5t-34 27t-27.5 34t-9 37.5v229q0 17 -3 30.5t-19 36t-50 22.5q35 4 53.5 31t18.5 59v193q0 22 8 37t26 33.5t35.5 28t40.5 9.5h211q22 0 36.5 -8.5t34 -27t28.5 -34.5t9 -38v-193q0 -28 18 -55t52 -36q-34 -4 -52.5 -30t-18.5 -58v-229
q0 -21 -9 -37t-33 -40t-65 -30h-213zM214 502q0 -28 18.5 -55t52.5 -36q-34 -4 -52.5 -30t-18.5 -58l-1 -145h214v143q0 17 -3 30.5t-19 36t-50 22.5q35 4 53.5 31t18.5 59v107h-213v-105zM433 821h-54l-160 159v55h56l158 -160v-54z" />
    <glyph glyph-name="Uacute" unicode="&#xda;" horiz-adv-x="635" 
d="M535 500q0 -28 18 -55t52 -36q-34 -4 -52.5 -30t-18.5 -58v-214q0 -21 -9 -37t-33 -40t-65 -30h-213q-22 0 -37.5 8.5t-34 27t-27.5 34t-9 37.5v214q0 17 -3 30.5t-19 36t-50 22.5q35 4 53.5 31t18.5 59l-1 107h-71v178h71q16 0 29.5 -15t18 -21t7.5 -18q3 12 8 19.5
t14 16.5t16 13.5t16 4.5h71v-178h-72l1 -105q0 -28 18.5 -55t52.5 -36q-34 -4 -52.5 -30t-18.5 -58l-1 -145h214v143q0 17 -3 30.5t-19 36t-50 22.5q35 4 53.5 31t18.5 59l1 107h-71v178h71q16 0 29.5 -15t18 -21t7.5 -18q3 12 8 19.5t14 16.5t16 13.5t16 4.5h71v-178h-77z
M199 821h54l160 159v55h-56l-158 -160v-54z" />
    <glyph glyph-name="Ucircumflex" unicode="&#xdb;" horiz-adv-x="635" 
d="M535 500q0 -28 18 -55t52 -36q-34 -4 -52.5 -30t-18.5 -58v-214q0 -21 -9 -37t-33 -40t-65 -30h-213q-22 0 -37.5 8.5t-34 27t-27.5 34t-9 37.5v214q0 17 -3 30.5t-19 36t-50 22.5q35 4 53.5 31t18.5 59l-1 107h-71v178h71q16 0 29.5 -15t18 -21t7.5 -18q3 12 8 19.5
t14 16.5t16 13.5t16 4.5h71v-178h-72l1 -105q0 -28 18.5 -55t52.5 -36q-34 -4 -52.5 -30t-18.5 -58l-1 -145h214v143q0 17 -3 30.5t-19 36t-50 22.5q35 4 53.5 31t18.5 59l1 107h-71v178h71q16 0 29.5 -15t18 -21t7.5 -18q3 12 8 19.5t14 16.5t16 13.5t16 4.5h71v-178h-77z
M195 804h-56v55l160 161h55l159 -160v-54h-54l-131 130z" />
    <glyph glyph-name="Ugrave" unicode="&#xd9;" horiz-adv-x="635" 
d="M535 500q0 -28 18 -55t52 -36q-34 -4 -52.5 -30t-18.5 -58v-214q0 -21 -9 -37t-33 -40t-65 -30h-213q-22 0 -37.5 8.5t-34 27t-27.5 34t-9 37.5v214q0 17 -3 30.5t-19 36t-50 22.5q35 4 53.5 31t18.5 59l-1 107h-71v178h71q16 0 29.5 -15t18 -21t7.5 -18q3 12 8 19.5
t14 16.5t16 13.5t16 4.5h71v-178h-72l1 -105q0 -28 18.5 -55t52.5 -36q-34 -4 -52.5 -30t-18.5 -58l-1 -145h214v143q0 17 -3 30.5t-19 36t-50 22.5q35 4 53.5 31t18.5 59l1 107h-71v178h71q16 0 29.5 -15t18 -21t7.5 -18q3 12 8 19.5t14 16.5t16 13.5t16 4.5h71v-178h-77z
M458 821h-54l-160 159v55h56l158 -160v-54z" />
    <glyph glyph-name="dotlessi" unicode="&#x131;" horiz-adv-x="290" 
d="M182 142h75v-142h-52q-16 0 -29.5 15t-18 21.5t-7.5 17.5q-3 -12 -8 -19.5t-14 -16.5t-16 -13.5t-16 -4.5h-58v142h69v250h-72v143h35q9 0 15 -3.5t15 -12.5t15 -17.5t9 -20.5q3 11 7.5 17.5t18 21.5t29.5 15h35v-143h-32v-250z" />
    <glyph glyph-name="circumflex" unicode="&#x302;" horiz-adv-x="450" 
d="M100 624h-56v55l160 161h55l159 -160v-54h-54l-131 130z" />
    <glyph glyph-name="tilde" unicode="&#x303;" horiz-adv-x="500" 
d="M69 696v39l112 112h38l91 -92l94 94h38v-37l-114 -114h-36l-92 92l-91 -94h-40z" />
    <glyph glyph-name="macron" unicode="&#x2c9;" horiz-adv-x="425" 
d="M45 765v65h340v-65h-340z" />
    <glyph glyph-name="breve" unicode="&#x2d8;" horiz-adv-x="385" 
d="M107 817q0 -36 23 -59t65 -23q44 0 66.5 22.5t22.5 59.5h72v-45q0 -21 -9 -37t-27 -34t-35 -27t-40 -9h-102q-21 0 -37 9t-35.5 27.5t-28 33t-8.5 37.5v45h73z" />
    <glyph glyph-name="dotaccent" unicode="&#x2d9;" horiz-adv-x="200" 
d="M50 778q-11 17 -28 17q17 0 27 14.5t10 29.5q9 0 13.5 2t16.5 9.5t15 24.5q0 -16 13.5 -25.5t30.5 -9.5q0 -16 10 -30t27 -17q-17 -3 -24 -12.5t-10 -16t-3 -13.5q-14 0 -28.5 -9.5t-14.5 -27.5q0 9 -4.5 15.5t-15.5 14t-26 7.5q0 15 -9 27z" />
    <glyph glyph-name="ring" unicode="&#x2da;" horiz-adv-x="750" 
d="M289 730q0 -12 7 -18t13 -10.5t13 -4.5h101q12 0 22.5 12.5t10.5 21.5v30q0 7 -3 13t-12 13t-17 7h-102q-14 0 -23.5 -11.5t-9.5 -21.5v-31zM336 719v53h75v-53h-75z" />
    <glyph glyph-name="cedilla" unicode="&#xb8;" horiz-adv-x="385" 
d="M152 0l4 -10v-98l75 98l2 10h-81z" />
    <glyph glyph-name="hungarumlaut" unicode="&#x2ba;" horiz-adv-x="650" 
d="M308 813h-54l-160 -214l214 160v54zM553 813h-54l-160 -214l214 160v54z" />
    <glyph glyph-name="ogonek" unicode="&#x2db;" horiz-adv-x="385" 
d="M218 0l-4 -10v-98l-75 98l-2 10h81z" />
    <glyph glyph-name="caron" unicode="&#x2c7;" horiz-adv-x="450" 
d="M362 849h56v-55l-160 -161h-55l-159 160v54h54l131 -130z" />
  </font>
</defs>
</svg>
